<?xml version="1.0" standalone="no"?>
<!DOCTYPE svg PUBLIC "-//W3C//DTD SVG 20010904//EN"
 "http://www.w3.org/TR/2001/REC-SVG-20010904/DTD/svg10.dtd">
<svg version="1.0" xmlns="http://www.w3.org/2000/svg"
 width="1000.000000pt" height="667.000000pt" viewBox="0 0 1000.000000 667.000000"
 preserveAspectRatio="xMidYMid meet">
<metadata>
Created by potrace 1.16, written by Peter Selinger 2001-2019
</metadata>
<g transform="translate(0.000000,667.000000) scale(0.100000,-0.100000)"
fill="#000000" stroke="none">
<path d="M480 6640 c0 -34 -25 -42 -33 -10 -3 13 -14 20 -30 20 -16 0 -26 -7
-30 -20 -6 -23 -27 -27 -27 -6 0 31 -65 26 -73 -6 -6 -22 -27 -16 -27 8 0 9
-11 14 -34 14 -25 0 -35 -5 -39 -20 -7 -27 -27 -26 -27 1 0 17 -4 20 -22 15
-13 -3 -26 -6 -30 -6 -5 0 -8 -7 -8 -15 0 -8 -5 -15 -10 -15 -6 0 -13 7 -16
15 -9 23 -44 19 -44 -5 0 -11 -7 -20 -15 -20 -13 0 -15 -23 -12 -155 l2 -154
35 -5 c19 -3 58 -4 85 -1 28 2 83 4 123 5 78 0 87 8 52 45 -11 11 -26 39 -34
60 -13 37 -16 40 -49 38 -49 -3 -55 20 -11 47 18 12 34 26 34 31 0 24 31 4 56
-36 32 -50 54 -61 137 -68 l57 -6 0 117 c0 64 3 127 6 140 4 13 2 22 -5 22 -6
0 -11 -13 -11 -30z"/>
<path d="M9230 6570 l0 -100 35 0 c38 0 574 36 673 46 l62 6 0 74 0 74 -385 0
-385 0 0 -100z"/>
<path d="M2255 6591 c-11 -10 -4 -23 10 -17 9 3 15 0 15 -10 0 -9 -5 -12 -12
-8 -7 4 -8 3 -4 -5 4 -7 13 -33 19 -59 13 -52 37 -63 47 -22 6 24 7 23 28 -17
12 -23 26 -44 32 -48 5 -3 10 -16 10 -28 1 -21 1 -21 14 -4 13 16 14 16 20 1
4 -9 9 -14 13 -11 3 3 19 -1 36 -9 19 -11 44 -14 69 -11 34 5 41 2 50 -19 6
-13 17 -24 25 -24 19 0 17 78 -5 120 l-17 34 -75 1 c-95 2 -138 21 -168 73
-12 22 -29 46 -38 53 -16 13 -60 20 -69 10z"/>
<path d="M9480 6354 c-96 -7 -191 -13 -211 -13 l-36 -1 -2 -477 c0 -263 -4
-547 -7 -631 l-7 -153 107 2 c58 1 109 5 112 10 3 5 25 9 50 9 28 0 43 -4 39
-10 -3 -5 3 -10 14 -10 10 0 21 5 23 11 3 9 10 9 27 0 14 -8 37 -10 58 -6 l35
6 -7 255 -7 254 21 0 c11 0 21 5 21 10 0 6 -11 10 -24 10 -22 0 -23 3 -25 79
-2 90 -2 91 102 91 l57 0 0 49 c0 26 -3 70 -7 96 l-6 47 -76 -5 c-56 -4 -65
-3 -36 3 22 5 57 9 78 9 41 1 77 29 77 61 0 11 10 30 21 41 18 18 25 20 40 11
15 -10 17 -8 16 8 -1 11 -8 20 -17 20 -12 1 -12 3 3 11 20 12 37 4 37 -17 0
-9 10 -14 27 -14 25 0 26 1 9 19 -17 18 -17 22 -2 52 18 35 22 119 6 119 -5 0
-10 -13 -10 -30 0 -20 -5 -30 -15 -30 -9 0 -15 -9 -15 -24 0 -14 -4 -27 -9
-30 -12 -8 -21 18 -14 42 7 29 -22 84 -56 107 -21 13 -26 22 -18 27 17 11
-171 7 -373 -8z m170 -626 c1 -112 3 -294 6 -405 l6 -202 -38 -3 c-22 -2 -74
-2 -116 0 l-78 4 0 386 c0 213 4 392 8 399 9 14 45 20 140 22 l72 1 0 -202z"/>
<path d="M8830 6305 c-85 -7 -249 -20 -365 -30 -378 -29 -1067 -93 -1072 -99
-2 -1 11 -30 27 -64 17 -34 30 -64 30 -67 0 -19 93 -190 109 -202 12 -8 19
-18 17 -22 -3 -4 -1 -13 4 -21 5 -9 5 -19 -2 -27 -8 -10 -2 -13 28 -13 49 0
34 -17 -23 -26 -29 -4 -43 -3 -43 5 0 12 -40 14 -89 5 -20 -4 -31 -12 -31 -24
0 -10 -7 -23 -15 -30 -13 -11 -15 -60 -15 -329 0 -174 3 -326 6 -338 8 -29 49
-37 116 -24 45 9 248 20 643 36 49 2 91 8 93 14 2 6 -24 7 -67 4 l-71 -5 6
399 c5 290 4 395 -4 388 -8 -7 -12 -129 -13 -393 -1 -269 -5 -384 -13 -390 -6
-5 -46 -10 -88 -11 l-78 -2 0 385 0 386 25 0 c20 0 25 5 25 24 0 16 7 26 23
30 35 9 77 7 77 -4 0 -18 47 -11 52 8 4 13 16 19 47 20 41 3 41 3 41 -32 0
-30 3 -35 27 -38 l27 -3 0 -125 c0 -166 -7 -290 -16 -290 -5 0 -8 -45 -8 -100
l0 -100 38 0 c38 0 38 0 35 -37 -7 -79 -14 -103 -28 -103 -8 0 -15 -4 -15 -9
0 -12 521 -4 675 9 61 6 118 10 128 10 16 0 17 29 17 469 l0 469 -22 5 c-12 4
-27 2 -34 -3 -6 -6 -25 -8 -43 -5 -17 3 -45 7 -63 10 -31 5 -31 5 -13 -10 19
-14 17 -15 -20 -8 -45 8 -84 8 -92 0 -18 -18 32 -36 166 -61 46 -9 86 -18 89
-20 2 -3 -3 -12 -12 -21 -9 -9 -16 -21 -16 -27 0 -7 -16 -8 -47 -4 -59 8 -103
-10 -103 -41 0 -27 17 -31 23 -5 2 9 2 -14 -1 -53 -2 -38 -8 -78 -13 -87 -5
-9 -9 -35 -9 -57 0 -23 -3 -41 -7 -41 -5 0 -7 64 -6 142 2 158 -12 143 -20
-22 -3 -52 -8 -115 -12 -140 -3 -25 -5 -89 -5 -142 1 -82 -1 -98 -16 -106 -14
-8 -15 -14 -7 -24 13 -16 11 -164 -3 -178 -9 -9 -133 -19 -259 -23 l-39 -1 2
180 c2 98 5 271 7 384 l5 205 30 3 c28 3 30 6 30 48 l0 44 39 0 40 0 7 57 c4
31 4 103 1 160 -2 57 -2 105 2 107 3 2 24 0 46 -4 22 -5 83 -17 135 -28 52
-11 128 -20 168 -19 l72 1 0 48 0 48 -52 -1 c-29 -1 -123 -7 -208 -14z m-970
-469 c0 -39 -14 -77 -26 -72 -10 4 -14 -3 -14 -20 0 -19 4 -25 15 -20 13 5 15
-29 15 -269 0 -172 4 -276 10 -280 6 -3 10 -35 10 -71 0 -35 -4 -64 -10 -65
-5 0 -23 -1 -40 -1 -16 0 -35 1 -40 1 -7 1 -10 48 -8 134 1 72 2 232 0 353
l-2 222 -47 -5 c-36 -3 -44 -2 -33 6 8 6 29 11 47 11 28 0 32 3 35 33 2 24 8
32 23 32 11 0 26 6 33 13 18 16 32 15 32 -2z m636 -12 c-3 -9 -9 -75 -12 -147
-3 -73 -10 -177 -15 -232 -5 -55 -10 -159 -12 -232 -1 -72 -5 -134 -7 -136 -3
-3 -34 -8 -69 -12 l-64 -7 8 68 c4 38 9 71 10 73 2 2 19 6 37 10 l33 7 7 79
c3 44 11 161 17 260 18 283 18 285 48 285 19 0 24 -4 19 -16z m-904 -504 c-3
-122 -2 -140 12 -140 13 0 16 -13 16 -70 l0 -70 -35 0 -35 0 0 64 c0 37 5 66
11 68 7 2 10 52 10 140 -1 100 2 138 11 141 7 3 13 6 13 6 0 1 -1 -62 -3 -139z"/>
<path d="M607 6178 l4 -23 -243 3 c-134 2 -244 8 -246 13 -5 13 -19 11 -36 -7
-21 -21 -20 -55 2 -60 15 -5 42 -46 42 -66 0 -4 -11 -8 -25 -8 -22 0 -25 -4
-25 -39 l0 -38 43 8 c53 11 465 32 483 25 11 -4 14 16 14 104 0 61 -4 110 -9
110 -4 0 -6 -10 -4 -22z"/>
<path d="M732 6178 c2 -17 -3 -24 -19 -26 -21 -3 -23 -9 -23 -62 0 -32 5 -62
10 -65 6 -4 8 -10 5 -15 -10 -16 28 -20 183 -21 86 0 222 -4 302 -8 80 -5 147
-6 150 -4 3 3 -6 14 -20 25 -19 15 -24 28 -21 51 3 34 16 55 27 44 6 -6 14
-41 17 -78 1 -9 7 -15 13 -12 11 4 26 101 17 116 -2 4 -33 7 -68 7 -81 0 -95
5 -89 36 4 23 2 24 -55 24 -50 0 -59 -3 -57 -17 2 -10 14 -21 27 -24 31 -9
-82 -11 -133 -3 -32 6 -38 11 -38 30 0 24 -1 24 -116 24 -114 0 -115 0 -112
-22z"/>
<path d="M6845 6125 c-231 -24 -527 -56 -659 -72 l-238 -28 38 -28 c21 -15 34
-27 29 -27 -6 0 -6 -3 1 -8 23 -16 144 -175 161 -212 11 -24 25 -40 36 -40 26
0 21 -20 -5 -20 -13 0 -29 -4 -36 -8 -15 -10 -25 -52 -12 -52 5 0 11 10 13 23
3 15 5 12 6 -12 1 -25 -3 -32 -13 -28 -15 6 -29 -40 -18 -58 3 -5 7 -21 8 -34
2 -14 8 -27 14 -29 5 -2 10 -8 10 -14 0 -6 -6 -8 -12 -5 -10 3 -13 -10 -13
-46 1 -31 6 -52 13 -55 10 -3 10 -7 1 -18 -9 -11 -7 -14 10 -14 19 0 20 -3 11
-20 -9 -16 -8 -20 5 -20 8 0 15 9 15 20 0 11 5 20 11 20 5 0 7 -5 3 -11 -3 -6
-1 -14 5 -18 8 -5 2 -18 -19 -39 -16 -18 -33 -32 -36 -31 -3 0 -8 -2 -11 -5
-4 -3 -1 -6 5 -6 14 0 16 -61 3 -75 -4 -6 -11 -22 -15 -37 -6 -24 -3 -28 16
-28 35 0 50 14 46 45 -2 16 2 30 10 32 8 3 12 -10 12 -46 0 -28 -4 -51 -10
-51 -5 0 -10 -5 -10 -11 0 -5 4 -8 9 -4 5 3 12 -3 14 -12 3 -10 5 -5 6 12 1
26 6 32 34 40 32 10 37 22 22 58 -4 10 -3 17 4 17 6 0 11 -10 12 -22 0 -13 3
-17 6 -10 7 17 23 15 23 -3 0 -8 -4 -15 -10 -15 -5 0 -10 -5 -10 -10 0 -7 6
-7 19 0 19 10 19 50 0 50 -5 0 -9 14 -9 30 0 21 5 30 16 30 11 0 14 5 10 16
-3 9 -6 31 -6 50 0 21 -4 33 -10 29 -6 -4 -10 8 -10 28 0 18 -3 36 -6 40 -3 3
-6 64 -7 134 0 104 -1 116 -7 63 l-7 -65 -1 63 -2 62 -41 0 c-24 0 -38 4 -34
10 3 6 26 10 49 10 41 0 43 1 38 25 -5 28 11 38 55 33 l28 -3 -22 -22 -22 -22
37 4 c20 3 84 7 142 9 101 4 105 5 102 26 -2 12 -1 32 2 44 5 20 12 22 71 22
52 0 65 -2 60 -14 -3 -7 -5 -67 -5 -133 0 -73 -4 -119 -10 -119 -6 0 -10 48
-10 125 0 99 -3 125 -14 125 -11 0 -14 -29 -15 -139 l-1 -138 25 5 c23 4 25 1
25 -32 0 -23 -4 -35 -12 -33 -9 1 -13 -23 -16 -83 -2 -47 -8 -88 -14 -91 -7
-5 -9 -33 -5 -79 6 -82 17 -105 18 -39 1 50 5 78 13 87 10 9 18 -5 20 -32 0
-14 4 -26 9 -26 4 0 7 144 7 320 l0 320 25 0 c27 0 34 -25 15 -59 -10 -19 -18
-377 -8 -386 3 -3 1 -25 -4 -48 -13 -54 -11 -127 2 -162 15 -40 28 -21 32 48
0 15 5 27 11 27 6 0 6 4 0 13 -6 7 -11 115 -11 255 -1 134 -4 247 -7 252 -3 5
4 11 15 15 11 3 20 15 20 26 0 15 7 19 35 19 l35 0 -1 -187 c-3 -374 -13 -638
-26 -638 -6 0 -15 -3 -19 -7 -10 -11 14 -10 59 3 37 10 55 43 20 37 -17 -3
-18 14 -15 262 1 146 5 320 8 387 l6 122 75 -1 c44 0 78 5 82 11 4 6 35 14 68
17 l61 7 5 36 c2 20 5 75 6 122 2 79 0 89 -22 113 -13 14 -39 32 -58 40 l-34
15 58 1 c44 0 57 3 57 15 0 8 -3 15 -7 14 -5 -1 -197 -21 -428 -44z"/>
<path d="M2184 6141 c-2 -2 -4 -14 -4 -26 0 -19 7 -23 53 -29 28 -3 71 -6 95
-6 23 0 42 -3 42 -7 0 -5 -38 -6 -85 -4 -67 2 -85 0 -85 -11 0 -7 11 -101 25
-208 14 -107 25 -201 25 -207 0 -29 66 -41 236 -43 212 -3 214 -3 214 15 0 14
-19 54 -30 65 -3 3 -7 18 -8 35 -1 16 -7 34 -12 39 -6 6 -10 21 -10 36 l1 25
14 -25 c14 -24 14 -23 15 27 0 81 20 206 36 231 8 13 26 27 40 32 42 16 27 27
-41 29 -36 1 -65 -2 -65 -6 0 -5 7 -18 15 -30 13 -18 13 -37 4 -130 -6 -59
-13 -110 -15 -112 -10 -10 -10 9 -3 94 9 99 5 125 -17 125 -8 0 -14 5 -14 10
0 6 -15 10 -32 10 -70 0 -108 12 -108 32 0 14 5 18 18 14 9 -3 24 -1 32 4 11
7 -3 10 -45 11 -33 0 -111 4 -173 7 -63 4 -116 5 -118 3z m230 -227 c9 -3 16
-12 16 -18 0 -21 108 -96 139 -96 26 0 71 -38 71 -59 0 -15 -12 -19 -82 -24
-151 -12 -177 -10 -187 16 -14 39 -22 137 -11 137 6 0 15 11 20 25 10 27 11
28 34 19z"/>
<path d="M1452 6044 l3 -79 55 -3 c81 -4 83 -8 10 -18 l-65 -9 -3 -152 -3
-153 30 0 c25 0 31 6 40 33 7 19 25 55 41 81 30 47 38 72 20 61 -5 -3 -10 1
-10 9 0 8 5 18 10 21 6 3 10 19 10 34 0 33 20 54 44 45 9 -3 16 -1 16 5 0 14
67 15 75 1 3 -5 14 -10 23 -10 10 0 25 -9 35 -20 9 -11 23 -20 31 -20 8 0 44
-16 80 -36 l66 -35 2 133 c1 129 0 169 -5 174 -1 1 -116 6 -255 10 l-253 7 3
-79z"/>
<path d="M2847 6008 c-6 -35 -2 -427 4 -432 2 -2 50 -6 107 -9 l102 -6 2 202
c1 213 1 238 -1 248 0 4 -29 9 -63 13 -35 4 -82 9 -104 12 -41 6 -42 5 -47
-28z"/>
<path d="M5567 5975 c-228 -32 -298 -45 -232 -44 57 2 61 0 35 -18 -37 -26
-151 -41 -313 -41 -81 1 -150 -2 -153 -4 -3 -3 25 -9 60 -13 36 -3 69 -12 73
-19 11 -18 70 -28 77 -13 2 7 5 4 5 -5 1 -10 7 -18 14 -18 12 0 41 -76 52
-142 5 -24 11 -35 19 -31 7 4 8 3 1 -5 -5 -5 -19 -12 -30 -15 -11 -3 8 -5 43
-6 49 -1 62 2 62 14 0 10 10 15 34 15 18 0 47 3 63 6 l29 6 2 -366 c2 -261 0
-366 -8 -366 -6 0 -9 -4 -6 -8 5 -9 198 -5 226 4 8 3 56 6 105 6 50 0 99 4
110 9 l20 8 -20 1 c-11 1 -27 2 -37 1 -9 -1 -19 3 -23 9 -9 15 6 250 16 244 5
-3 9 6 9 20 0 14 -5 26 -12 26 -9 0 -9 3 0 12 15 15 16 68 1 68 -8 0 -8 4 0
14 14 17 12 124 -3 149 -8 13 -8 20 2 26 16 9 14 151 -1 162 -5 3 -2 9 7 12
14 6 16 -23 16 -288 0 -185 4 -296 10 -300 6 -4 10 21 11 67 1 55 3 66 9 43
l8 -30 1 32 c0 17 -5 33 -11 36 -10 3 -10 7 1 20 14 18 12 134 -4 171 -6 14
-5 17 3 12 8 -5 12 0 12 14 0 12 -4 18 -10 15 -13 -8 -13 12 1 72 8 37 8 55
-2 78 -7 17 -13 37 -14 45 -1 8 -10 30 -19 49 -10 18 -16 35 -14 37 2 2 12
-12 23 -32 33 -61 40 -38 41 134 l2 162 -27 -1 c-14 0 -133 -16 -264 -34z
m118 -227 c-11 -31 -34 -683 -25 -692 11 -11 13 -69 4 -103 -7 -25 -28 -31
-134 -37 -41 -2 -82 -6 -90 -8 -12 -2 -16 10 -18 60 -2 34 1 62 5 62 4 0 8 71
8 158 -1 86 2 164 7 173 4 9 17 19 28 22 15 4 20 0 21 -16 0 -22 0 -22 11 1 6
12 19 22 29 22 18 0 19 -11 15 -212 -3 -117 -2 -197 0 -178 7 50 14 67 22 53
4 -6 19 -9 35 -6 26 5 27 7 27 77 1 85 8 207 15 259 3 22 1 37 -5 37 -5 0 -10
-5 -10 -11 0 -5 -4 -7 -10 -4 -16 10 -12 35 5 29 21 -8 23 3 29 171 3 83 6
151 6 153 0 1 7 2 15 2 8 0 12 -6 10 -12z m-66 -425 c-4 -27 -4 -89 -1 -140 4
-78 2 -94 -12 -109 -15 -14 -19 -15 -27 -3 -5 8 -9 10 -9 5 0 -6 -4 -6 -10 0
-7 7 -8 57 -4 141 7 128 7 130 33 141 14 5 29 10 32 11 3 1 3 -20 -2 -46z"/>
<path d="M9944 5930 c4 -30 11 -144 15 -252 5 -108 11 -200 14 -205 3 -4 7
-90 8 -191 2 -100 7 -182 11 -182 18 0 8 435 -16 653 -13 120 -27 221 -31 225
-4 4 -5 -18 -1 -48z"/>
<path d="M8660 5903 c0 -32 -4 -43 -15 -43 -18 0 -20 -16 -2 -23 6 -3 7 -6 2
-6 -7 -1 -9 -30 -7 -77 3 -51 0 -79 -7 -84 -8 -5 -12 -71 -14 -221 -2 -211 -2
-214 19 -217 20 -3 22 3 29 64 4 38 11 78 16 91 6 17 5 23 -6 23 -15 0 -15 -7
-1 406 2 56 0 108 -5 115 -6 9 -9 -1 -9 -28z"/>
<path d="M1175 5894 c-58 -9 -94 -20 -102 -30 -9 -13 -31 -16 -110 -15 -71 0
-93 -2 -81 -10 22 -12 60 -14 253 -9 83 2 160 0 173 -4 21 -7 22 -5 22 38 0
45 0 46 -32 45 -18 -1 -73 -8 -123 -15z"/>
<path d="M1720 5840 c-10 -29 -10 -46 -3 -63 6 -12 17 -38 23 -57 7 -19 22
-50 34 -67 21 -33 21 -33 104 -33 l82 0 0 58 c0 69 -17 90 -119 143 -36 19
-71 40 -79 47 -21 19 -28 15 -42 -28z"/>
<path d="M4560 5804 c-157 -33 -229 -52 -200 -54 53 -3 62 -16 12 -17 -27 0
-58 -6 -68 -12 -18 -10 -18 -10 0 -11 11 0 40 -21 65 -47 25 -27 47 -47 48
-45 10 8 23 -1 24 -15 0 -10 3 -13 5 -6 3 7 12 9 20 6 12 -4 11 -8 -6 -20 -11
-8 -25 -11 -30 -8 -6 3 -10 1 -10 -4 0 -6 4 -11 9 -11 5 0 12 -8 14 -17 4 -14
5 -12 6 5 0 12 7 22 15 22 18 0 26 -103 13 -170 -10 -55 -15 -150 -16 -294 -1
-95 -3 -107 -16 -96 -13 11 -15 6 -15 -31 1 -35 3 -40 11 -26 5 9 7 22 4 27
-3 6 -1 10 4 10 7 0 11 -33 11 -90 l0 -90 58 4 c31 2 114 10 185 17 l127 12
-2 246 -3 246 -40 0 c-42 0 -41 0 -37 55 2 16 10 20 45 21 23 1 34 3 25 6 -10
2 -18 8 -18 13 0 5 7 7 15 4 13 -5 15 18 14 177 0 101 -3 191 -7 199 -11 23
-138 20 -262 -6z m-51 -246 c-1 -7 1 -21 6 -31 4 -9 5 -29 3 -42 -4 -17 -1
-25 8 -25 10 0 14 14 14 46 0 38 3 45 16 40 9 -3 20 -6 25 -6 5 0 10 -39 11
-87 1 -53 3 -69 5 -40 3 36 8 47 21 47 14 0 15 2 2 10 -8 5 -16 22 -18 39 -2
23 2 31 18 36 12 4 25 4 28 0 10 -9 10 -59 1 -65 -4 -3 -11 -79 -14 -170 -4
-91 -9 -167 -11 -169 -2 -2 -5 65 -6 150 l-2 154 -6 -125 c-6 -132 -13 -154
-11 -35 1 50 -1 65 -8 54 -6 -9 -11 -94 -11 -190 l-2 -174 29 0 c27 0 28 -2
31 -57 3 -55 2 -58 -20 -59 -13 0 -17 -3 -10 -6 20 -8 14 -23 -9 -23 -15 0
-19 5 -15 15 4 12 0 14 -22 9 -15 -4 -28 -11 -30 -16 -2 -4 -12 -8 -21 -8 -15
0 -17 8 -13 58 3 31 9 59 13 60 5 2 9 24 9 48 0 29 4 43 11 39 6 -4 7 -19 4
-35 -3 -15 -2 -31 3 -34 6 -4 13 31 16 86 10 151 12 316 4 311 -5 -2 -8 -33
-8 -69 0 -35 -4 -64 -9 -64 -6 0 -8 41 -4 103 5 100 5 102 -18 112 -21 9 -24
18 -27 68 -2 36 1 57 8 57 6 0 10 -6 9 -12z"/>
<path d="M7220 5752 c0 -30 -2 -32 -35 -32 -28 0 -35 4 -35 20 0 11 -4 20 -10
20 -6 0 -10 -33 -11 -77 -1 -90 -5 -146 -18 -258 -16 -129 -23 -273 -14 -278
5 -3 8 -18 7 -34 -1 -15 -2 -45 -3 -65 -1 -33 -4 -38 -26 -38 -15 0 -25 -6
-25 -14 0 -15 78 -30 117 -22 11 2 42 8 67 11 l45 7 0 397 c1 218 -3 389 -8
381 -13 -24 -32 -534 -25 -648 7 -100 6 -103 -14 -109 -12 -3 -19 -10 -15 -16
3 -6 1 -7 -5 -3 -7 4 -13 36 -14 74 l-2 67 -3 -62 -4 -63 -35 0 -35 0 7 163
c4 89 8 169 10 177 1 8 3 59 3 113 1 79 4 97 16 97 11 0 15 -14 17 -57 1 -54
2 -55 5 -13 3 25 9 50 15 55 7 7 8 -52 4 -200 -4 -115 -4 -207 -1 -203 8 7 37
629 30 636 -3 3 -5 -9 -5 -26z"/>
<path d="M4150 5637 c0 -17 -6 -23 -27 -25 -16 -1 -77 -8 -138 -15 -86 -9 -99
-13 -62 -15 26 -2 45 -7 43 -11 -3 -4 22 -21 55 -37 39 -19 62 -37 65 -51 6
-22 34 -41 34 -23 0 18 25 6 32 -15 3 -11 6 33 7 98 1 64 -1 117 -4 117 -3 0
-5 -10 -5 -23z"/>
<path d="M550 5580 c-9 -6 -129 -10 -285 -11 -149 0 -264 -3 -257 -6 6 -2 9
-9 6 -15 -4 -7 8 -9 34 -6 38 3 41 1 45 -22 3 -20 4 -18 6 8 2 45 23 37 35
-14 5 -21 14 -44 20 -51 50 -56 56 -74 56 -159 0 -43 2 -75 4 -73 4 5 15 103
16 142 0 20 5 27 20 27 24 0 21 20 29 -190 l7 -175 2 183 2 182 30 0 c28 0 30
-3 31 -37 1 -21 5 -49 9 -63 6 -19 8 -9 9 36 l1 62 34 6 c45 9 113 -3 120 -20
7 -19 42 -18 50 2 4 10 14 14 26 11 19 -5 20 0 20 94 l0 99 -27 0 c-16 0 -35
-5 -43 -10z"/>
<path d="M730 5582 c0 -5 -8 -8 -17 -6 -14 4 -19 -2 -20 -30 -2 -19 3 -41 10
-48 8 -7 14 -20 14 -28 1 -8 4 -36 8 -62 7 -41 5 -48 -9 -48 -15 0 -16 -17
-14 -162 3 -143 5 -163 20 -166 9 -2 21 5 26 15 6 10 12 126 13 258 4 221 5
240 22 239 40 -3 42 -4 31 -12 -8 -5 -13 -83 -16 -244 l-4 -237 30 -5 c56 -10
373 -19 419 -12 55 8 51 -7 66 246 6 96 12 186 13 200 3 22 -2 26 -37 31 -39
6 -39 6 13 8 60 1 59 7 37 -114 -8 -44 -15 -141 -15 -216 0 -123 2 -138 20
-154 16 -14 21 -15 24 -4 3 8 6 132 8 277 l3 262 -37 0 c-27 0 -38 -4 -38 -15
0 -24 -56 -20 -63 5 -5 19 -14 20 -210 20 -112 0 -225 3 -251 6 -29 4 -46 3
-46 -4z m146 -226 c10 -27 87 -55 167 -59 61 -3 77 -1 77 10 0 10 13 13 48 11
26 -1 60 2 76 6 25 8 28 6 23 -10 -3 -11 -8 -30 -11 -44 -6 -30 -59 -64 -87
-57 -14 4 -28 -5 -47 -29 -27 -34 -52 -45 -52 -23 0 8 -5 8 -15 -1 -19 -16
-49 -5 -41 15 3 9 0 15 -9 15 -8 0 -15 -5 -15 -10 0 -23 -31 -20 -63 4 -19 14
-41 26 -50 26 -24 0 -21 31 3 37 29 8 26 54 -5 83 -14 13 -25 27 -25 32 0 13
20 9 26 -6z"/>
<path d="M5239 5568 c0 -22 -1 -22 -8 -3 -10 25 -5 -72 9 -175 6 -41 8 -86 5
-100 -10 -49 -14 -309 -4 -315 5 -4 9 -1 9 5 0 6 4 9 9 6 5 -3 11 8 15 25 8
40 8 542 0 563 -9 24 -34 19 -35 -6z"/>
<path d="M1728 5540 c-4 -32 -22 -35 -47 -9 -16 17 -21 19 -21 8 0 -11 -12
-16 -42 -17 -23 -1 -44 1 -47 6 -3 4 -32 6 -63 4 -54 -4 -58 -6 -58 -29 l0
-25 78 9 c81 8 193 8 350 -3 89 -6 94 -7 103 -32 7 -18 7 -28 0 -30 -29 -10 2
-102 35 -102 8 0 14 -10 14 -25 0 -16 -6 -25 -16 -25 -14 0 -15 -11 -9 -77 7
-93 24 -173 35 -173 15 0 21 18 9 25 -12 8 -10 84 4 102 10 14 0 36 -14 28 -5
-4 -9 1 -9 9 0 9 5 16 10 16 6 0 13 0 18 0 4 1 10 -14 13 -32 5 -24 7 -15 6
30 0 48 -4 65 -17 72 -13 7 -16 19 -13 54 4 44 1 51 -35 91 -7 8 -10 20 -6 26
4 8 3 9 -4 5 -7 -4 -12 -3 -12 2 0 6 10 12 23 15 12 4 40 25 62 47 l40 41 -80
-1 c-44 -1 -130 2 -192 6 -111 7 -111 7 -115 -16z"/>
<path d="M5012 5533 c-1 -23 -7 -33 -18 -33 -9 0 -12 -5 -8 -12 6 -10 4 -10
-8 0 -31 25 -35 -7 -24 -243 2 -38 4 -109 5 -157 1 -82 2 -88 22 -88 20 0 21
3 17 235 -2 129 0 235 5 235 4 0 8 -48 8 -107 1 -60 5 -151 9 -203 l7 -95 0
105 c1 113 -12 416 -15 363z"/>
<path d="M2182 5510 c-1 -29 0 -30 49 -30 l49 0 0 -77 c2 -208 1 -262 -5 -313
l-6 -55 76 128 c43 71 75 130 73 132 -13 14 -52 -14 -80 -58 l-33 -52 -3 135
c-1 74 0 140 2 147 3 7 16 13 28 14 33 1 11 8 -57 18 -55 8 -57 9 -17 10 23 0
42 5 42 10 0 10 -48 21 -90 21 -23 0 -27 -4 -28 -30z"/>
<path d="M2376 5521 c-5 -8 18 -11 83 -11 l89 0 7 -29 c3 -16 13 -32 21 -35
10 -4 14 -16 12 -33 -2 -22 -10 -29 -40 -36 -32 -8 -37 -13 -40 -40 -2 -27 -8
-33 -30 -35 -27 -3 -38 -25 -19 -37 6 -3 1 -21 -11 -43 l-20 -37 23 27 c13 15
33 39 44 53 18 21 22 23 38 11 17 -13 16 -16 -8 -62 -23 -43 -25 -58 -23 -133
l3 -85 53 -4 52 -3 0 125 c0 115 -7 146 -25 116 -10 -16 -22 -12 -20 8 3 30
16 62 26 62 17 0 39 27 39 49 0 11 5 23 10 26 6 4 10 -8 10 -29 0 -20 5 -36
10 -36 6 0 10 -60 10 -160 0 -88 4 -160 9 -160 14 0 19 77 15 229 -3 113 -7
146 -19 155 -32 23 23 124 69 128 26 1 -104 14 -250 24 -80 5 -113 4 -118 -5z"/>
<path d="M2850 5246 l0 -263 108 -6 c59 -4 177 -10 262 -13 l155 -7 4 255 c2
150 -1 258 -6 261 -9 6 -422 37 -488 37 l-35 0 0 -264z"/>
<path d="M4271 5383 c-6 -278 -5 -324 10 -334 11 -7 12 -9 0 -9 -10 0 -11 -3
-2 -14 6 -7 12 -27 12 -42 0 -16 2 -57 5 -91 4 -38 2 -63 -4 -63 -5 0 -12 -9
-15 -20 -3 -11 -1 -20 4 -20 5 0 9 5 9 10 0 6 15 8 40 4 41 -7 45 -3 30 31 -8
19 -9 19 -9 -3 -1 -17 -6 -22 -18 -20 -17 3 -18 26 -14 346 l3 342 -24 0 c-25
0 -25 0 -27 -117z"/>
<path d="M4351 5310 c-2 -85 -4 -168 -4 -185 -1 -16 0 -70 2 -120 4 -142 22
-68 24 98 1 105 4 137 13 133 9 -4 11 5 7 30 -4 22 -2 34 6 34 6 0 11 5 11 10
0 6 -6 10 -14 10 -7 0 -16 9 -19 19 -3 15 1 21 17 24 16 3 15 5 -7 6 -31 1
-28 21 4 21 15 0 19 7 19 35 0 26 -3 33 -15 29 -8 -4 -15 -17 -15 -29 0 -40
-19 -38 -22 2 -2 21 -5 -32 -7 -117z"/>
<path d="M3745 5391 c-9 -15 -2 -612 7 -617 5 -3 8 107 7 244 0 138 2 255 6
261 3 6 12 11 18 11 16 0 18 -571 2 -583 -6 -5 -4 -7 5 -4 13 3 15 52 18 350
l2 347 -29 0 c-17 0 -32 -4 -36 -9z"/>
<path d="M4096 5384 c-3 -9 -7 -34 -8 -57 -1 -37 -2 -38 -5 -9 -2 17 -10 32
-17 32 -10 0 -15 -43 -20 -172 -7 -165 -14 -270 -19 -288 -1 -4 3 -9 8 -9 6
-1 13 13 16 31 l6 33 2 -32 c1 -35 18 -44 28 -15 4 9 11 20 16 23 6 4 7 15 2
25 -7 18 -8 18 -15 -1 -5 -11 -9 -14 -9 -7 -1 6 -7 12 -15 12 -11 0 -13 13 -9
63 7 76 13 87 13 23 0 -29 4 -45 10 -41 6 4 8 11 5 16 -4 5 -2 9 4 9 6 0 8 19
5 48 -7 60 11 215 25 220 6 2 11 8 11 13 0 6 -4 7 -10 4 -14 -9 -12 29 2 43 9
9 8 12 -7 12 -17 0 -17 1 0 20 15 17 16 20 3 20 -9 0 -19 -7 -22 -16z"/>
<path d="M690 4962 c0 -6 9 -16 20 -22 11 -6 20 -16 20 -22 0 -7 11 -21 25
-33 24 -20 24 -23 30 -220 7 -210 13 -265 26 -210 l7 30 1 -32 c1 -28 5 -33
26 -33 25 0 25 0 26 98 1 53 5 144 9 202 5 85 7 93 9 45 2 -51 4 -56 11 -31 5
16 6 42 3 57 -4 23 -2 29 12 29 9 0 19 -9 22 -19 3 -11 11 -22 19 -25 8 -3 14
-16 14 -29 0 -13 7 -32 15 -43 13 -18 15 -16 17 21 1 22 5 -38 8 -134 4 -143
8 -175 20 -179 12 -4 13 -3 2 10 -10 13 -11 50 -3 179 5 90 7 203 4 252 -5 75
-4 87 10 87 9 0 22 -7 31 -15 19 -20 23 -19 29 5 5 18 11 20 71 14 45 -4 66
-3 66 5 0 7 -36 11 -108 11 -60 0 -184 3 -275 7 -121 4 -167 3 -167 -5z"/>
<path d="M9486 4959 c-142 -5 -259 -10 -260 -11 0 -2 0 -284 2 -627 l3 -624
277 7 c152 4 300 7 327 6 116 -4 165 0 165 11 0 13 -75 19 -145 12 -39 -5 -82
-8 -95 -7 -14 0 -69 1 -123 2 l-99 2 7 253 c7 234 11 282 22 250 3 -7 10 -13
17 -13 16 0 12 -143 -4 -148 -6 -2 -10 -42 -10 -97 0 -84 2 -93 20 -98 17 -4
20 -14 21 -74 1 -52 3 -61 9 -38 4 17 8 68 7 115 0 47 -2 74 -4 60 -10 -56
-23 -42 -23 25 0 65 11 79 23 30 3 -11 5 12 6 52 1 64 3 72 20 70 11 0 19 -4
18 -8 -1 -4 6 -14 17 -21 14 -11 20 -34 26 -94 5 -58 8 -3 11 211 2 160 4 311
3 338 0 45 1 47 28 47 27 0 28 2 28 50 0 48 1 50 28 50 26 0 27 -2 27 -47 0
-35 4 -47 14 -45 7 1 20 0 30 -3 14 -4 16 -32 11 -302 -3 -164 -3 -336 0 -383
l5 -85 13 57 c15 65 28 80 41 46 6 -15 9 39 10 157 1 544 -1 505 21 505 17 0
20 7 20 39 0 43 7 38 -90 57 -27 5 -29 8 -23 37 3 18 12 47 19 66 18 42 17
141 0 164 -15 19 1 19 -420 6z m12 -311 c-3 -29 1 -53 14 -75 17 -32 17 -33
-3 -43 -21 -12 -21 -37 0 -32 6 1 11 -2 11 -8 0 -5 -4 -10 -10 -10 -5 0 -10
-14 -10 -31 0 -17 4 -28 10 -24 6 4 10 -7 10 -24 0 -17 -4 -31 -10 -31 -5 0
-10 -16 -10 -36 0 -21 4 -33 10 -29 12 8 11 31 14 -293 l2 -274 -23 -9 c-46
-17 -52 -13 -48 39 2 26 5 84 6 130 2 46 7 86 11 88 4 3 3 14 -2 25 -8 14 -7
19 1 19 9 0 9 3 0 14 -7 8 -8 17 -3 20 13 8 13 66 0 66 -7 0 -8 31 -3 98 11
130 12 312 3 312 -12 0 -10 38 2 45 6 4 8 11 4 16 -3 6 -7 28 -8 50 -2 32 1
39 17 39 16 0 19 -6 15 -42z m211 -165 c0 -152 -12 -252 -29 -263 -11 -7 -16
-4 -19 13 -1 12 -7 25 -13 28 -5 4 -12 79 -15 168 l-6 161 42 0 41 0 -1 -107z"/>
<path d="M8853 4933 c-29 -4 -33 -8 -33 -33 l0 -28 125 -7 c69 -4 125 -11 125
-14 0 -4 -91 -8 -202 -9 -111 -1 -204 -4 -206 -7 -3 -3 31 -5 76 -5 l82 0 0
-100 c0 -92 -2 -100 -19 -100 -14 0 -21 8 -23 28 -3 23 -8 27 -38 30 -94 7
-99 9 -102 55 -3 40 -5 42 -38 45 -55 4 -80 11 -80 23 0 7 6 6 17 -2 20 -17
16 -17 37 4 10 9 22 15 27 11 5 -3 17 -3 27 0 14 5 19 18 21 55 l2 50 -88 -5
c-48 -2 -207 -9 -353 -14 -546 -20 -820 -34 -820 -41 0 -7 29 -75 70 -164 38
-83 53 -154 34 -172 -8 -9 -12 -29 -10 -53 2 -22 -1 -41 -7 -43 -13 -4 -17
-47 -5 -47 5 0 8 -105 8 -232 0 -128 -1 -247 0 -264 0 -26 4 -30 23 -29 l22 2
3 336 2 337 31 0 c17 0 28 -4 24 -10 -4 -6 7 -10 24 -10 30 0 41 -13 22 -24
-11 -7 -15 -522 -4 -658 l8 -103 6 70 c4 39 7 212 8 386 1 284 3 318 17 323 9
4 87 9 173 13 143 6 155 5 143 -10 -8 -9 -11 -25 -7 -36 4 -14 0 -21 -15 -26
-11 -3 -20 -14 -20 -22 0 -9 3 -14 6 -10 15 15 31 -23 31 -76 1 -46 -2 -57
-13 -53 -8 3 -14 1 -14 -3 0 -5 6 -11 12 -13 13 -5 19 -130 10 -215 -3 -34 -8
-43 -23 -43 -10 0 -19 3 -19 8 -4 98 -8 144 -14 149 -3 3 -6 -102 -6 -234 0
-211 2 -242 16 -247 9 -3 20 -3 25 0 15 9 630 10 636 1 3 -5 114 -7 247 -5
l241 3 1 310 c1 359 -2 360 -15 1 -6 -142 -12 -260 -14 -263 -3 -2 -39 -7 -81
-10 l-76 -6 0 72 0 71 59 0 60 0 5 53 c5 53 26 552 26 620 0 35 -2 37 -32 38
l-33 2 30 4 c37 6 45 17 45 69 0 33 4 43 20 47 18 5 20 14 19 121 l-1 116
-101 -2 c-56 0 -117 -3 -134 -5z m-467 -325 c4 -7 3 -8 -4 -4 -14 9 -36 -40
-27 -62 7 -20 -6 -93 -16 -86 -5 3 -8 -16 -8 -43 l2 -48 7 40 7 40 2 -52 c1
-38 -3 -52 -11 -50 -9 1 -14 -17 -16 -60 -2 -51 0 -63 12 -63 11 0 14 -8 11
-33 -5 -35 -6 -268 -2 -387 l2 -75 -30 0 -30 0 1 70 c1 139 25 800 29 813 5
15 61 16 71 0z m296 -78 c-4 -56 -3 -60 17 -60 11 0 20 3 20 8 -1 4 -1 30 0
59 1 45 4 52 21 50 20 -1 29 -17 10 -17 -5 0 -10 -10 -10 -22 0 -13 -6 -154
-14 -313 -9 -160 -17 -335 -18 -390 l-3 -100 -62 3 c-50 3 -62 1 -58 -10 4
-11 -17 -14 -110 -13 l-115 0 1 65 c0 36 4 85 8 110 8 45 9 45 10 9 1 -34 20
-57 35 -42 3 4 6 37 6 75 0 43 4 68 11 68 6 0 9 -7 5 -15 -3 -8 -1 -15 4 -15
6 0 10 5 10 10 0 6 7 10 15 10 12 0 15 -14 15 -68 l0 -69 30 5 c16 2 27 9 24
14 -10 16 -12 98 -2 98 4 0 8 34 8 75 0 64 -3 75 -17 75 -16 0 -16 1 0 13 11
8 16 26 16 57 -1 25 2 107 5 183 6 119 5 137 -9 137 -9 0 -15 9 -15 25 0 23 3
25 50 25 28 0 50 5 50 10 0 6 15 10 33 10 l33 0 -4 -60z m120 0 c-4 -56 -3
-60 17 -60 19 0 21 6 21 60 l0 60 34 0 c34 0 35 0 29 -37 -3 -21 -10 -41 -16
-44 -5 -4 -4 -10 3 -14 9 -6 9 -10 -1 -16 -11 -7 -11 -9 1 -9 13 0 13 -1 0
-11 -12 -9 -13 -12 -1 -16 11 -5 11 -7 0 -14 -11 -7 -11 -11 -2 -17 16 -10 11
-35 -10 -56 -16 -17 -14 -42 3 -31 4 3 11 -2 14 -11 12 -32 6 -44 -22 -44
l-28 0 -3 -87 c-2 -49 -5 -107 -6 -130 -2 -36 1 -42 22 -48 23 -5 23 -8 23
-134 l0 -128 -77 1 -78 1 1 30 c1 17 4 161 8 320 8 351 10 375 37 375 16 0 19
7 19 53 0 44 5 67 15 67 1 0 -1 -27 -3 -60z m-315 32 c8 -5 11 -35 10 -90 -2
-67 -5 -82 -17 -79 -10 2 -14 13 -13 30 1 15 -2 25 -8 22 -5 -4 -8 -27 -8 -53
1 -26 3 -39 6 -29 2 9 12 17 20 17 14 0 15 -16 8 -142 -4 -79 -7 -161 -6 -184
1 -40 1 -40 -30 -36 l-32 5 6 116 c4 64 10 187 13 274 6 134 9 157 23 157 9 0
21 -4 28 -8z m-251 -19 c-8 -26 -28 -674 -22 -681 3 -3 8 -3 10 -1 2 2 6 100
10 218 4 118 9 217 11 220 3 2 5 -7 6 -20 l1 -24 9 25 c5 16 7 -13 4 -80 -8
-175 -8 -324 -1 -341 4 -9 6 -43 4 -75 l-3 -59 -59 -3 -59 -2 7 147 c5 119 4
145 -6 135 -9 -9 -13 -51 -13 -142 0 -70 -3 -131 -6 -134 -3 -4 -32 -4 -63 0
l-57 7 3 66 3 66 33 -1 c30 -2 32 0 33 35 1 66 10 176 15 181 3 2 8 0 12 -6 4
-6 17 -13 30 -16 21 -6 22 -4 22 71 0 43 3 152 7 243 l6 165 -36 -3 c-21 -2
-37 1 -37 8 0 6 10 8 23 5 12 -4 29 -2 37 3 8 5 30 10 48 10 27 0 32 -3 28
-17z m184 -108 c-1 -60 -4 -126 -6 -145 -2 -19 -4 -92 -4 -161 -1 -69 -6 -132
-11 -140 -5 -8 -9 -9 -10 -4 0 6 -4 1 -9 -10 -5 -12 -7 101 -4 270 2 160 4
294 4 298 0 5 10 7 21 5 21 -3 22 -8 19 -113z"/>
<path d="M8610 4259 c11 -8 12 -12 3 -16 -8 -3 -13 -24 -13 -54 0 -40 3 -49
18 -50 13 0 11 -3 -6 -9 -13 -6 -22 -15 -21 -22 6 -45 -2 -88 -16 -88 -8 0
-15 -4 -15 -10 0 -5 9 -10 20 -10 11 0 20 4 20 10 0 6 9 6 26 0 14 -6 27 -10
30 -10 2 0 4 61 4 135 l0 135 -32 0 c-26 0 -30 -3 -18 -11z"/>
<path d="M2555 4920 c-7 -12 1 -138 11 -172 4 -12 0 -18 -10 -18 -13 0 -16
-14 -16 -84 l0 -84 34 12 c48 17 69 36 56 51 -6 8 -10 37 -9 67 2 68 32 122
101 182 l53 46 -76 0 c-42 0 -90 3 -107 6 -18 4 -32 1 -37 -6z"/>
<path d="M2847 4833 c-4 -58 -3 -91 5 -100 11 -14 16 -73 21 -247 1 -64 6 -91
15 -94 11 -3 13 26 7 167 -5 147 -4 171 8 171 19 0 24 -34 33 -207 6 -120 8
-133 24 -133 27 0 32 27 28 164 -1 69 0 127 3 131 4 3 9 -34 13 -82 4 -49 9
-116 13 -150 l6 -63 44 0 45 0 -7 61 c-12 105 -25 124 -22 32 2 -46 1 -83 -3
-83 -3 0 -13 59 -23 132 -12 95 -21 134 -32 140 -17 10 -20 44 -5 53 6 3 10
24 10 46 l0 39 -85 0 c-50 0 -85 4 -85 10 0 6 3 9 8 9 4 -1 18 -1 31 0 19 1
23 5 19 26 -4 20 -1 26 18 31 33 8 30 20 -7 28 -76 15 -75 15 -82 -81z"/>
<path d="M3054 4856 c-11 -61 -7 -129 7 -121 4 3 6 19 2 35 -3 18 -1 30 5 30
12 0 17 -29 41 -237 11 -89 21 -166 25 -171 7 -11 113 -16 119 -5 6 9 -75 281
-100 336 -14 33 -15 40 -2 48 32 20 50 5 74 -63 18 -54 20 -68 9 -68 -18 0
-19 8 21 -126 19 -63 35 -117 35 -120 0 -3 10 -4 23 -2 21 3 22 8 25 92 2 65
-1 92 -10 98 -10 6 -10 8 1 8 9 0 10 4 3 13 -7 8 -7 31 0 70 13 74 4 126 -24
136 -20 7 -20 10 17 44 21 20 37 38 34 41 -2 2 -69 7 -149 11 l-145 7 -11 -56z"/>
<path d="M3430 4805 c0 -62 4 -91 14 -99 11 -9 11 -27 -1 -111 -7 -55 -12
-127 -11 -160 2 -45 7 -19 19 103 16 160 25 192 49 177 8 -5 10 -29 5 -79 -7
-86 -24 -215 -31 -238 -4 -14 1 -18 19 -18 24 0 24 1 41 178 17 170 23 209 30
201 2 -2 -5 -87 -14 -189 -9 -102 -15 -187 -13 -189 9 -12 15 20 31 160 14
124 20 154 33 157 19 3 29 -74 29 -230 l0 -98 45 0 45 0 0 255 0 255 -38 0
c-22 0 -87 3 -145 7 l-107 6 0 -88z"/>
<path d="M7190 4863 c-367 -14 -1093 -46 -1164 -51 -80 -6 -88 -9 -75 -22 39
-42 122 -209 121 -242 0 -18 5 -28 14 -28 18 0 18 -16 0 -23 -8 -3 -16 0 -19
6 -2 7 -20 11 -38 10 -19 -1 -42 -2 -51 -2 -20 -1 -26 -45 -8 -56 6 -3 10 -25
9 -48 -1 -36 -2 -38 -9 -17 -6 19 -8 12 -9 -31 -1 -31 4 -61 12 -68 10 -11 10
-14 0 -18 -8 -3 -12 -21 -12 -46 l2 -42 7 40 7 40 2 -47 c0 -27 -3 -48 -7 -48
-5 0 -6 -66 -4 -147 3 -112 8 -150 18 -156 22 -12 19 -113 -3 -126 -10 -5 -15
-12 -12 -15 11 -11 272 -16 285 -5 8 7 14 7 19 -1 3 -5 13 -10 21 -10 12 0 14
9 10 43 -3 23 -8 232 -11 465 -4 233 -8 445 -11 473 -3 36 0 49 10 49 10 0 14
-57 19 -277 4 -153 7 -348 7 -435 0 -167 0 -167 52 -160 28 4 28 5 28 78 0 60
3 74 15 74 10 0 15 -8 14 -22 -1 -13 -1 -48 -1 -78 l2 -55 40 1 c22 1 47 2 55
3 12 1 15 17 15 76 0 43 4 75 10 75 6 0 10 -33 10 -80 0 -87 -2 -84 63 -74
l37 7 0 78 c0 109 19 111 22 2 3 -80 5 -88 23 -88 18 0 20 -8 23 -61 3 -54 1
-62 -17 -67 -28 -7 -31 -1 -31 60 0 37 -3 52 -11 47 -7 -4 -9 -22 -6 -46 7
-49 -11 -68 -64 -68 l-39 0 0 57 c0 42 -3 54 -11 46 -6 -6 -10 -30 -7 -52 2
-23 1 -41 -2 -41 -3 -1 -24 -5 -47 -9 -58 -11 -71 1 -76 69 l-3 55 -2 -61 c-2
-49 -6 -63 -19 -66 -32 -8 -43 3 -44 45 -2 34 -3 37 -6 12 -3 -16 -9 -35 -13
-40 -25 -30 9 -33 473 -41 l467 -7 0 332 c0 219 -3 330 -10 326 -5 -3 -10 1
-10 9 0 9 5 16 10 16 6 0 10 20 10 45 l0 45 -37 -1 -38 -2 35 -7 c30 -6 31 -8
9 -9 -15 0 -29 -8 -33 -16 -3 -9 -12 -12 -21 -8 -13 5 -14 7 -3 14 10 7 9 9
-3 9 -9 0 -19 -9 -22 -20 -3 -13 0 -20 9 -20 15 0 16 -12 4 -50 -8 -24 -8 -24
-9 -2 -1 32 -17 27 -25 -9 -3 -16 -13 -37 -21 -45 -13 -14 -15 -12 -15 18 0
26 3 30 11 18 9 -12 10 -12 5 3 -3 10 -6 28 -7 40 -1 20 -2 20 -9 -3 -4 -14
-8 -40 -9 -57 -1 -23 -6 -33 -17 -33 -14 0 -15 7 -10 45 4 25 3 45 -2 45 -12
0 -12 7 -21 -325 l-7 -300 -3 250 c-1 138 -4 302 -7 367 -3 64 -2 118 3 120 4
3 61 2 126 -1 l117 -6 0 193 c0 105 -1 191 -2 190 -2 -1 -37 -3 -78 -5z m-315
-412 c-11 -130 -14 -441 -5 -446 6 -4 10 -33 10 -66 l0 -59 59 0 59 0 4 -65
c3 -64 2 -65 -22 -65 -14 0 -42 -3 -62 -6 l-38 -7 0 62 c0 34 -4 61 -10 61 -5
0 -10 -22 -10 -49 0 -56 -6 -61 -73 -54 l-47 6 0 42 c0 61 8 75 41 75 l29 0 0
198 c-1 176 -2 194 -15 172 -9 -16 -15 -59 -16 -115 l-2 -90 -7 110 c-4 61 -8
165 -9 232 l-1 122 38 3 c77 6 82 3 77 -61z m-214 -95 c-1 -77 -4 -142 -6
-146 -2 -4 -6 -53 -10 -110 -5 -95 -9 -120 -19 -109 -2 2 -6 76 -10 164 -4 96
-12 176 -21 200 l-14 40 -2 -50 -2 -50 -7 55 c-5 30 -8 74 -9 97 -1 41 0 42
37 46 68 7 64 15 63 -137z m-262 -28 c-2 -171 -15 -281 -33 -275 -12 4 -12 5
-23 255 -5 96 -6 176 -4 178 2 2 17 4 33 4 l29 0 -2 -162z m136 145 c-2 -10
-7 -83 -10 -163 -11 -248 -13 -274 -23 -278 -5 -1 -12 6 -15 18 -3 13 -1 18 6
14 8 -5 7 -2 0 7 -7 7 -13 29 -13 48 0 20 -5 43 -10 51 -7 11 -10 7 -10 -17 0
-20 -5 -33 -12 -33 -9 0 -10 -3 -2 -8 7 -4 10 -33 8 -75 -3 -72 -13 -105 -15
-46 0 19 -2 45 -4 59 -6 40 -25 338 -25 392 l0 48 64 0 c56 0 64 -2 61 -17z
m-355 -574 c0 -33 3 -40 15 -35 20 7 35 -30 35 -85 0 -32 -3 -39 -20 -39 -15
0 -20 7 -21 28 l-2 27 -4 -27 c-4 -25 -8 -26 -64 -30 -87 -4 -90 -2 -94 71
l-4 63 30 -6 c21 -4 31 -1 35 9 8 19 30 19 38 0 3 -8 12 -12 21 -9 10 4 12 11
6 21 -11 21 -2 53 15 53 10 0 14 -13 14 -41z"/>
<path d="M5475 4784 c-447 -29 -580 -40 -560 -49 26 -11 219 -205 211 -212 -3
-4 -1 -12 4 -18 7 -8 2 -21 -15 -41 l-25 -29 2 -320 c1 -176 3 -303 5 -282 l4
37 55 0 55 0 -3 -57 -3 -58 -60 -2 c-79 -2 -77 -1 -70 -13 4 -6 23 -10 43 -10
20 0 193 -3 384 -6 l348 -6 -1 289 c0 158 1 344 3 413 1 69 1 182 0 253 l-2
127 -82 -1 c-46 -1 -177 -8 -293 -15z m10 -230 c-6 -2 -10 -57 -9 -137 0 -80
-4 -138 -10 -146 -8 -11 -8 -13 2 -7 9 6 12 -23 12 -133 0 -77 4 -173 10 -213
19 -149 19 -148 1 -156 -9 -5 -51 -8 -94 -7 -43 1 -80 -1 -82 -5 -2 -4 -18 -5
-35 -2 -30 4 -30 5 -30 64 0 59 1 60 25 56 14 -3 25 -1 25 5 0 5 6 4 14 -2 10
-8 16 -9 21 -1 3 5 22 10 40 10 l34 0 3 125 c3 131 19 172 29 75 5 -45 8 83
11 438 1 36 4 42 22 41 12 0 17 -2 11 -5z"/>
<path d="M2202 4747 c-21 -22 -22 -31 -20 -173 l2 -149 6 150 6 150 2 -152 c1
-111 -1 -153 -10 -153 -21 0 1 -13 27 -15 l25 -3 2 169 c0 93 1 174 2 181 2
21 -20 19 -42 -5z"/>
<path d="M2386 4579 c-4 -94 -5 -173 -2 -176 7 -7 334 -8 341 -1 12 12 52 169
44 174 -5 3 -9 14 -9 25 0 28 -34 21 -38 -7 -2 -15 -17 -27 -47 -38 -37 -14
-76 -52 -75 -71 0 -3 -13 -19 -28 -37 -23 -23 -38 -31 -68 -31 -30 -1 -40 3
-42 17 -3 15 1 17 20 11 16 -4 19 -3 9 3 -11 8 -9 13 11 26 14 9 32 14 41 11
19 -8 30 10 33 50 1 16 0 21 -3 11 -4 -14 -7 -15 -13 -6 -11 18 -40 5 -88 -40
-23 -22 -46 -40 -51 -40 -10 0 -21 126 -18 218 1 35 -1 66 -4 68 -3 2 -9 -73
-13 -167z"/>
<path d="M4478 4706 c-204 -20 -287 -36 -187 -36 36 0 46 -4 54 -22 6 -12 25
-32 43 -44 20 -14 28 -24 20 -27 -8 -3 -5 -6 6 -6 11 -1 17 -4 13 -7 -14 -15
25 -33 84 -40 41 -5 57 -10 45 -14 -18 -6 -18 -7 -3 -13 21 -8 49 2 41 14 -3
5 2 9 10 9 8 0 18 -5 21 -10 4 -6 11 -8 16 -5 5 4 9 1 9 -4 0 -6 -7 -11 -15
-11 -9 0 -26 -7 -38 -15 -13 -8 -44 -16 -70 -17 -37 -2 -44 -5 -32 -14 8 -6
11 -15 7 -19 -4 -4 10 -5 31 -2 38 6 38 6 36 -26 -1 -18 -1 -141 0 -273 1
-233 2 -242 21 -247 17 -4 20 -14 20 -56 0 -51 -8 -59 -52 -52 -12 2 -9 -9 6
-25 11 -11 45 -14 140 -14 l126 0 0 500 0 500 -67 -1 c-38 -1 -166 -11 -285
-23z"/>
<path d="M5011 4423 c-18 -4 -22 -10 -18 -29 2 -14 -1 -24 -7 -24 -7 0 -11
-20 -10 -52 0 -34 -5 -60 -15 -72 -12 -15 -13 -17 -2 -11 11 6 13 4 8 -7 -3
-9 0 -21 6 -28 9 -10 8 -12 -8 -8 -33 8 -50 -20 -46 -75 1 -24 21 -11 21 14 0
10 4 19 9 19 4 0 9 -24 9 -54 0 -51 -1 -55 -29 -65 l-29 -10 0 -127 c0 -109
-2 -129 -17 -140 -10 -7 -15 -16 -11 -20 11 -10 171 -5 182 6 7 7 -1 10 -19
11 -58 2 -60 3 -63 38 -5 55 5 81 32 81 22 0 24 3 19 40 -4 26 -2 40 6 40 6 0
11 -17 11 -40 0 -22 3 -40 8 -40 11 0 9 553 -3 555 -5 1 -21 0 -34 -2z"/>
<path d="M4308 4402 c-16 -2 -29 -6 -29 -10 -7 -42 -7 -72 -1 -72 5 0 4 -33
-1 -72 -4 -40 -8 -77 -8 -83 0 -5 3 -39 5 -75 3 -36 5 -100 5 -142 1 -76 2
-78 25 -78 23 0 25 -4 28 -52 3 -48 1 -54 -22 -64 -25 -11 -25 -11 8 -12 l32
-1 0 329 c0 181 -3 330 -7 332 -5 2 -20 2 -35 0z"/>
<path d="M1569 4343 c-45 -4 -47 -6 -51 -37 -2 -18 2 -38 9 -45 7 -6 9 -19 6
-28 -4 -10 -2 -14 5 -9 6 3 13 2 16 -3 4 -5 2 -12 -4 -16 -19 -12 -10 -24 23
-28 22 -3 15 -4 -20 -5 l-53 -2 1 -32 c1 -22 3 -26 6 -12 3 16 14 24 39 28 19
4 39 4 44 1 6 -3 10 -53 10 -109 l0 -104 26 -5 26 -5 -7 116 c-5 81 -12 120
-22 130 -11 12 -13 29 -9 71 5 40 4 52 -3 41 -6 -8 -11 -22 -11 -31 0 -23 -24
-41 -37 -28 -7 7 -6 22 3 47 9 28 18 37 36 37 14 0 24 7 26 18 2 9 0 16 -5 15
-4 -1 -29 -3 -54 -5z"/>
<path d="M1830 4330 c2 -20 53 -59 90 -69 37 -10 45 -16 46 -37 1 -14 4 -28 7
-31 13 -12 60 15 75 42 9 17 20 32 23 35 4 3 9 15 13 28 4 12 12 22 17 22 5 0
9 5 9 10 0 7 -48 10 -140 8 -77 -2 -140 -5 -140 -8z"/>
<path d="M2190 4313 c0 -9 6 -24 14 -32 7 -9 16 -35 19 -58 4 -37 3 -42 -17
-45 -15 -2 -22 -11 -24 -34 -3 -29 -1 -31 22 -27 21 4 26 1 26 -16 0 -11 5
-21 10 -21 6 0 10 9 10 20 0 11 5 20 10 20 6 0 10 10 10 23 0 30 39 32 45 2 2
-11 6 -29 8 -40 3 -11 5 -3 6 18 1 47 -13 64 -54 59 -31 -4 -31 -3 -27 33 3
21 7 33 11 28 3 -5 16 -9 29 -9 20 0 22 5 22 48 l0 48 -60 0 c-49 0 -60 -3
-60 -17z"/>
<path d="M2425 4319 c-4 -5 -3 -29 0 -53 6 -38 4 -45 -12 -48 -16 -3 -15 -5 5
-10 14 -4 22 -2 22 7 0 7 9 15 20 18 13 3 18 11 14 20 -5 14 19 47 36 47 33 0
40 -14 40 -75 0 -62 1 -64 30 -70 17 -4 30 -12 30 -18 0 -7 -14 -84 -30 -172
-35 -186 -32 -168 -21 -161 5 3 24 83 41 176 25 131 36 170 46 166 16 -6 19
20 4 29 -10 6 -7 17 26 93 13 29 24 55 24 57 0 9 -270 4 -275 -6z"/>
<path d="M3069 4324 c0 -5 0 -30 1 -57 1 -35 -3 -49 -14 -53 -9 -3 -16 -15
-16 -25 0 -17 -8 -19 -69 -19 l-70 0 -27 -57 c-21 -45 -28 -78 -32 -148 -4
-82 -3 -89 12 -76 15 12 15 11 0 -24 -33 -79 14 -90 50 -12 13 28 49 106 80
172 41 89 61 121 76 123 22 4 27 -13 7 -25 -13 -8 -142 -287 -142 -306 0 -14
112 -20 120 -7 8 13 35 213 35 262 0 20 3 39 8 42 7 4 0 -135 -12 -251 l-6
-53 30 0 c16 0 30 5 30 10 0 6 -9 10 -20 10 -25 0 -26 20 -1 27 17 4 20 18 26
101 14 222 27 226 26 8 l-2 -156 26 0 25 0 0 190 c0 160 2 192 15 196 8 4 15
12 15 20 0 21 42 62 85 84 l40 19 -101 1 c-56 0 -122 3 -148 6 -25 4 -46 3
-47 -2z"/>
<path d="M3427 4313 c-13 -12 -7 -157 7 -203 12 -36 15 -40 15 -18 1 15 6 30
11 33 7 4 10 -48 10 -149 0 -118 -3 -156 -12 -157 -7 0 -4 -4 7 -8 11 -5 31
-7 45 -6 l25 2 5 159 6 159 2 -157 c2 -150 3 -158 22 -158 18 0 19 7 18 155
-2 133 0 158 15 172 17 18 20 15 30 -32 4 -15 5 -13 6 7 0 15 6 30 11 33 6 4
11 -33 12 -102 l2 -108 3 90 c2 50 10 104 17 120 8 17 16 39 19 50 5 22 9 -79
9 -217 0 -48 4 -90 9 -94 13 -7 11 -92 -2 -96 -5 -2 -7 -11 -4 -21 6 -13 19
-17 56 -17 l49 0 0 216 0 216 -45 -4 -45 -3 0 47 c0 39 -3 48 -17 49 -11 0
-13 3 -5 6 6 2 12 10 12 17 0 19 -276 37 -293 19z"/>
<path d="M3980 4282 c0 -21 4 -42 10 -48 11 -11 3 -25 -25 -40 -19 -11 -20
-22 -20 -218 0 -160 -3 -209 -13 -215 -8 -5 37 -11 104 -15 64 -4 121 -3 126
2 4 4 7 107 6 228 l-3 219 -45 6 c-40 5 -33 11 18 13 25 1 32 15 32 64 l0 42
-95 0 -95 0 0 -38z"/>
<path d="M394 4262 c7 -11 -16 -146 -52 -312 -17 -74 -28 -138 -25 -142 7 -13
53 -9 58 5 2 6 14 86 25 177 12 91 26 170 32 175 7 7 8 -2 4 -30 -3 -22 -10
-94 -16 -160 -6 -66 -13 -133 -16 -149 -5 -21 -3 -27 7 -24 10 3 17 45 26 154
6 82 12 161 12 177 1 22 6 27 26 27 28 0 34 17 9 27 -12 4 -14 14 -9 44 l7 39
-47 0 c-25 0 -44 -4 -41 -8z"/>
<path d="M67 4196 c-3 -8 -19 -17 -36 -21 l-31 -7 0 -180 c0 -100 3 -179 6
-176 3 4 16 82 30 174 13 92 26 170 29 172 7 7 6 -1 -10 -123 -8 -60 -14 -123
-14 -140 1 -16 9 24 19 90 10 66 21 137 25 158 5 24 4 37 -4 37 -6 0 -8 7 -5
15 4 8 4 15 1 15 -3 0 -7 -6 -10 -14z"/>
<path d="M1042 4018 l1 -173 8 163 c4 90 10 166 13 169 3 3 12 3 21 -1 14 -5
15 -29 11 -193 -3 -121 -2 -167 4 -128 4 33 9 112 10 175 2 108 3 111 11 53 4
-34 7 -110 5 -168 -1 -58 2 -108 6 -111 4 -3 8 76 8 175 0 154 -2 181 -15 181
-8 0 -15 7 -15 15 0 10 -11 15 -35 15 l-35 0 2 -172z"/>
<path d="M118 4172 c-13 -2 -18 -13 -18 -35 0 -18 -2 -50 -5 -72 -7 -53 1 -34
15 38 16 78 24 66 11 -14 -6 -35 -14 -79 -17 -97 -3 -23 -2 -32 5 -27 6 3 11
17 11 31 0 13 4 24 9 24 4 0 6 10 4 23 -3 13 0 39 6 58 9 31 10 29 6 -21 l-4
-55 13 63 c13 62 31 102 21 46 -3 -16 -18 -95 -34 -176 -15 -82 -24 -148 -20
-148 8 0 13 20 50 207 12 62 24 111 27 108 2 -2 -1 -34 -8 -70 -7 -36 -10 -68
-8 -70 2 -3 13 37 23 87 13 65 21 86 26 72 7 -18 8 -17 8 3 1 17 -6 23 -31 27
-34 5 -60 4 -90 -2z"/>
<path d="M1927 4161 c9 -34 -5 -69 -28 -73 -21 -3 -22 -8 -21 -141 1 -75 5
-138 9 -140 4 -1 9 11 11 26 2 16 21 82 43 148 21 66 39 126 39 134 0 8 5 15
10 15 6 0 10 9 10 20 0 12 -7 20 -17 20 -10 0 -28 3 -40 6 -18 5 -21 3 -16
-15z"/>
<path d="M3450 3741 l-25 -7 -3 -247 -2 -247 59 0 c68 0 84 17 48 51 -15 14
-17 18 -5 14 21 -8 38 22 37 67 0 27 -2 30 -9 13 -8 -18 -9 -17 -9 8 -1 15 4
36 11 46 9 15 7 29 -11 72 -13 30 -29 61 -36 69 -17 21 -8 40 20 40 18 0 22 4
18 19 -3 11 2 21 11 24 9 4 16 16 16 27 0 11 5 20 10 20 6 0 10 -25 10 -55 0
-44 4 -56 20 -65 18 -10 20 -23 23 -183 l3 -172 2 173 c1 97 6 172 11 172 5 0
10 -70 10 -162 1 -89 4 -164 6 -167 3 -2 5 73 5 167 0 151 2 171 16 165 12 -4
14 0 9 19 -4 16 -1 31 9 41 8 8 18 33 22 55 6 38 5 39 -26 46 -42 8 -217 6
-250 -3z"/>
<path d="M24 3724 c9 -8 16 -21 16 -29 0 -7 4 -15 9 -17 5 -1 11 -23 12 -48 4
-44 4 -45 -29 -48 l-33 -3 1 -152 c1 -84 4 -171 7 -194 10 -80 18 -43 15 69
-2 80 0 109 7 98 8 -11 11 -2 11 35 0 76 11 125 26 125 8 0 14 -11 14 -25 0
-14 5 -25 10 -25 6 0 11 -24 12 -52 1 -46 2 -43 7 22 4 45 10 73 16 70 10 -5
9 -306 -1 -342 -4 -14 1 -18 23 -18 18 0 23 3 15 8 -10 7 -4 35 27 128 22 65
43 127 46 137 5 12 2 17 -9 17 -9 0 -16 7 -16 15 0 8 9 15 19 15 11 0 23 5 26
10 3 6 -3 10 -13 10 -11 0 -22 9 -25 20 -4 17 -14 20 -57 20 l-51 0 3 85 3 85
-53 0 c-49 0 -52 -1 -38 -16z"/>
<path d="M173 3722 c10 -10 17 -23 17 -29 0 -6 22 -37 49 -69 27 -31 47 -63
44 -71 -3 -9 3 -13 21 -13 31 0 32 -9 6 -85 -11 -32 -18 -60 -16 -62 2 -2 13
25 26 59 25 71 46 101 37 53 -6 -29 -6 -29 10 5 52 111 -15 -129 -82 -292 -4
-9 -21 -19 -38 -21 -18 -2 4 -4 48 -4 44 0 72 1 63 4 -22 6 -23 -2 8 83 14 39
24 76 21 83 -2 7 -16 -25 -31 -70 -26 -79 -40 -102 -49 -86 -4 8 106 319 117
330 10 11 6 -20 -9 -71 -21 -68 -17 -82 5 -20 25 73 38 94 57 94 18 0 13 -39
-11 -93 -8 -18 -30 -83 -49 -144 -27 -89 -31 -113 -20 -113 8 0 12 4 9 9 -3 4
21 86 52 182 32 95 61 168 65 162 4 -6 -18 -87 -48 -179 -63 -193 -58 -174
-45 -174 6 0 10 7 10 15 0 14 99 326 106 334 17 20 7 -31 -36 -174 -28 -92
-48 -170 -45 -173 8 -8 9 -5 39 98 57 196 78 261 83 257 3 -4 -56 -248 -83
-339 -3 -10 -1 -18 3 -18 5 0 20 43 33 95 13 52 26 93 28 90 4 -3 -21 -124
-34 -167 -4 -13 0 -18 15 -18 15 0 21 6 21 24 0 15 7 26 19 29 28 7 46 163 35
314 -6 83 -10 103 -12 66 -2 -42 -6 -53 -20 -52 -10 0 -12 3 -4 6 6 2 12 11
12 19 0 9 -4 12 -10 9 -6 -3 -10 4 -10 17 0 18 2 20 10 8 5 -8 10 -10 10 -5
-1 16 -26 45 -33 38 -4 -3 -7 -2 -7 4 0 16 -82 4 -96 -13 -10 -12 -13 -12 -24
1 -14 17 -40 20 -40 5 0 -5 -7 -10 -16 -10 -13 0 -42 57 -35 70 6 11 -40 19
-113 19 -76 1 -78 0 -63 -17z"/>
<path d="M705 3478 c4 -145 8 -268 10 -274 2 -6 29 -12 61 -13 32 -1 55 2 50
6 -4 4 -17 8 -29 8 -22 0 -22 2 -25 178 -2 172 -2 177 18 177 14 0 20 -7 20
-22 0 -13 5 -30 10 -38 7 -11 10 -4 10 28 0 35 3 42 20 42 18 0 20 -7 21 -82
l2 -83 7 67 c7 74 10 80 42 85 21 3 21 3 15 -182 l-7 -186 100 2 100 1 0 209
c0 179 2 209 15 209 12 0 15 -21 16 -122 1 -68 4 -163 8 -213 7 -78 8 -65 9
97 2 175 8 215 30 193 4 -4 9 -88 12 -188 l6 -182 2 188 c1 122 5 186 12 182
6 -4 10 -77 10 -186 0 -98 3 -179 8 -179 4 0 7 82 7 182 0 136 3 182 13 185 9
4 12 -27 14 -129 l1 -133 7 110 c4 61 8 120 9 133 0 13 6 20 11 17 6 -4 11
-80 12 -188 l2 -182 5 197 c3 108 9 200 14 204 4 4 7 -6 8 -22 l1 -29 7 31 c4
17 9 60 10 97 2 66 2 67 -23 67 -25 0 -26 -2 -26 -60 0 -47 -3 -60 -15 -60 -8
0 -15 -6 -15 -14 0 -9 -18 -14 -67 -15 -37 -1 -64 1 -60 5 11 12 -13 44 -34
44 -11 0 -24 -10 -29 -22 -7 -18 -9 -10 -9 35 l-1 58 -57 -3 -58 -3 -3 -50
c-3 -46 -6 -52 -34 -64 -20 -9 -33 -11 -35 -4 -2 5 -15 8 -28 5 -17 -3 -25 0
-25 9 0 10 -2 11 -8 2 -10 -16 -72 -27 -72 -12 0 6 -8 8 -20 4 -19 -6 -20 -2
-20 69 0 70 -2 76 -20 76 -20 0 -21 -3 -15 -262z"/>
<path d="M1557 3733 c-44 -4 -47 -6 -41 -29 4 -14 2 -24 -5 -24 -6 0 -12 -12
-12 -27 l-1 -28 -8 30 c-5 21 -9 1 -11 -70 l-3 -100 -6 115 -6 115 -2 -155 -2
-155 165 -75 c165 -74 223 -110 177 -110 -12 0 -22 -4 -22 -10 0 -5 12 -10 26
-10 25 0 25 1 20 53 -6 52 -26 283 -26 302 0 6 14 16 30 24 29 12 73 11 161
-4 l36 -7 23 68 c12 37 32 76 44 86 20 17 11 17 -234 16 -140 -1 -276 -3 -303
-5z"/>
<path d="M2180 3473 l0 -268 287 3 c159 2 294 5 301 7 9 3 12 65 12 265 l0
260 -300 0 -300 0 0 -267z"/>
<path d="M4919 3609 c14 -5 31 -7 39 -4 12 4 13 3 2 -10 -10 -12 -10 -15 4
-15 10 0 14 -4 11 -10 -3 -5 -1 -10 4 -10 6 0 11 -5 11 -10 0 -12 41 -73 53
-78 4 -2 5 -8 1 -13 -3 -5 0 -9 6 -9 6 0 15 -11 20 -25 5 -14 14 -25 20 -25 7
0 10 -106 10 -314 0 -173 3 -321 6 -330 8 -21 32 -21 36 0 2 9 -1 98 -5 198
-4 100 -7 190 -7 201 3 64 5 70 28 73 19 3 22 -1 22 -32 0 -19 5 -38 10 -41 6
-3 10 -11 10 -16 0 -6 -5 -7 -11 -3 -8 4 -9 -1 -4 -17 17 -54 28 -36 27 46 0
36 4 65 9 65 5 0 9 -21 10 -47 2 -248 12 -449 22 -455 9 -5 13 34 17 150 6
172 11 164 13 -27 l2 -124 43 -2 42 -2 0 150 c0 83 2 148 5 146 2 -3 5 -69 6
-147 1 -78 5 -142 10 -142 5 0 9 40 9 90 0 87 1 90 25 96 40 10 25 32 -17 25
-5 0 -8 24 -8 55 0 52 1 55 23 52 21 -3 22 1 25 60 3 59 2 62 -20 63 l-23 0
22 9 c20 8 22 15 20 80 -2 39 1 74 5 76 4 3 8 -51 8 -120 0 -107 2 -125 15
-120 17 7 20 34 4 34 -8 0 -7 5 2 16 8 10 9 18 2 22 -14 9 -14 42 0 71 9 19 9
25 0 28 -7 3 -13 13 -13 24 0 15 7 19 33 19 l32 0 0 -300 c0 -165 3 -300 8
-300 6 0 12 455 7 563 -1 28 2 37 14 37 12 0 16 -10 16 -35 0 -31 7 -39 31
-37 11 1 10 -86 -2 -94 -7 -4 -9 -3 -6 3 9 14 -3 73 -14 73 -7 0 -7 -26 1 -50
1 -3 1 -26 0 -52 -1 -27 3 -48 8 -48 5 0 9 -7 9 -15 0 -8 -4 -12 -9 -9 -4 3
-8 1 -8 -5 0 -5 5 -13 10 -16 6 -3 10 -14 10 -23 0 -13 -2 -14 -9 -3 -6 9 -8
5 -8 -14 0 -19 2 -23 8 -14 6 10 9 5 9 -14 0 -16 -4 -26 -10 -22 -13 8 -8
-221 6 -235 5 -5 20 -7 33 -3 17 4 19 8 9 14 -11 7 -10 11 2 19 9 6 10 10 3
10 -9 0 -12 72 -13 285 -1 315 -6 286 58 289 30 2 33 21 4 27 -19 5 -13 7 23
7 28 0 42 -2 32 -5 -13 -3 -17 -11 -14 -23 3 -11 0 -21 -7 -24 -6 -2 15 -5 47
-5 32 -1 57 3 57 9 0 6 -5 10 -11 10 -8 0 -8 4 0 14 10 11 8 15 -6 19 -14 4
-13 5 5 6 22 1 22 3 22 129 l0 129 -307 6 c-434 10 -654 8 -624 -4z"/>
<path d="M5940 3603 c0 -5 24 -45 53 -90 28 -45 60 -96 70 -113 9 -18 27 -35
40 -38 20 -6 20 -7 -8 -12 -26 -5 -30 -9 -27 -34 3 -20 -3 -32 -18 -43 -19
-13 -21 -23 -19 -100 1 -74 4 -86 20 -90 23 -6 20 15 25 -190 3 -145 1 -173
-11 -173 -20 0 -28 -17 -21 -46 4 -15 14 -24 26 -24 18 0 20 -7 20 -60 0 -52
-2 -60 -19 -60 -11 0 -26 -3 -35 -6 -14 -6 -16 33 -16 390 0 384 -1 396 -19
396 -11 0 -22 -6 -24 -12 -4 -10 -6 -10 -6 0 -1 6 -5 12 -11 12 -6 0 -10 -52
-9 -137 1 -133 1 -136 14 -88 l13 50 1 -69 c1 -57 -1 -67 -14 -62 -13 5 -15
-13 -15 -124 0 -114 2 -129 18 -133 16 -4 16 -5 0 -6 -14 -1 -18 -10 -18 -36
0 -28 4 -35 20 -35 18 0 20 -7 20 -65 0 -58 -2 -65 -20 -65 -11 0 -20 -6 -20
-14 0 -18 82 -28 255 -31 77 -1 169 -8 204 -14 35 -7 95 -11 135 -10 39 1 77
0 85 -2 7 -2 15 1 18 8 3 7 -9 13 -29 15 l-33 3 -1 195 c-1 233 -1 243 -13
236 -17 -11 -21 25 -21 175 l0 149 133 -2 c82 0 115 -3 87 -7 -36 -5 -41 -8
-24 -14 23 -8 38 -43 23 -53 -10 -6 -11 -466 -2 -625 l6 -97 37 -6 c85 -13
339 -27 397 -20 l63 6 -1 573 -1 572 -151 7 c-84 3 -363 8 -622 11 -258 3
-489 8 -512 11 -24 3 -43 1 -43 -3z m1278 -263 c-11 -17 -10 -22 1 -29 11 -7
10 -11 -7 -20 -11 -6 -32 -11 -46 -11 -55 0 -34 -29 22 -31 16 0 21 -3 12 -6
-8 -3 -18 -12 -23 -19 -4 -7 -16 -11 -27 -9 -14 3 -20 -2 -20 -16 0 -10 3 -18
8 -18 4 1 9 0 12 -1 3 -1 19 -4 35 -5 45 -4 45 -4 45 -15 0 -5 -11 -12 -25
-16 -28 -7 -24 -24 6 -24 10 0 19 -5 19 -10 0 -11 -51 -25 -82 -24 -10 1 -18
-5 -18 -12 0 -15 61 -29 85 -20 8 3 15 1 15 -4 0 -6 -6 -10 -12 -10 -9 0 -9
-3 1 -9 10 -7 0 -11 -35 -16 -85 -11 -79 11 -82 -299 -1 -172 -6 -276 -12
-276 -6 0 -10 6 -10 14 0 15 -88 28 -96 14 -3 -5 -16 -8 -30 -8 l-24 0 0 160
c0 90 -4 160 -9 160 -5 0 -11 -5 -13 -11 -2 -6 -17 -9 -33 -6 -28 4 -29 5 -7
12 12 4 22 11 22 16 0 5 9 9 21 9 15 0 19 4 15 16 -3 9 -6 114 -6 235 l0 219
-42 2 -43 1 43 4 c42 4 42 4 42 44 l0 39 155 0 c153 0 155 0 143 -20z m-908
-70 c0 -5 -7 -10 -15 -10 -8 0 -15 -5 -15 -11 0 -8 -4 -8 -14 0 -12 10 -14 0
-15 -64 0 -52 3 -74 10 -69 6 3 8 15 6 26 -7 25 2 48 18 48 18 0 20 -25 17
-227 -3 -151 -6 -183 -18 -183 -10 0 -14 13 -14 52 0 28 -2 49 -5 46 -8 -8
-11 -238 -2 -238 4 0 7 5 7 10 0 6 7 10 16 10 8 0 13 -4 10 -9 -3 -5 0 -11 8
-14 7 -3 12 -18 11 -36 -1 -17 2 -31 6 -31 10 0 16 181 6 187 -4 2 -4 9 -1 15
8 13 5 473 -3 494 -3 9 2 14 16 14 12 0 21 -4 21 -10 0 -5 6 -10 13 -10 9 0
11 -79 9 -370 -2 -342 -4 -370 -20 -372 -9 -1 -59 -2 -109 -3 l-93 0 0 63 c0
60 1 62 25 62 l25 0 0 150 c0 149 0 150 23 149 21 0 21 -1 2 -9 -11 -5 -15 -9
-8 -9 6 -1 17 -3 25 -6 10 -4 14 12 16 72 1 43 -3 85 -8 93 -9 12 -10 12 -8
-5 2 -14 -3 -21 -19 -23 -22 -3 -23 -1 -24 92 -1 53 -2 101 -3 108 -1 7 10 15
24 19 38 11 80 10 80 -1z m609 -738 l1 -52 -52 2 c-29 1 -59 6 -65 11 -8 6
-13 33 -13 69 0 56 1 59 23 56 19 -3 23 -10 28 -63 l6 -60 1 58 c2 54 3 57 28
57 23 0 25 4 24 33 -1 17 -1 37 0 42 4 16 18 -95 19 -153z"/>
<path d="M6979 3303 c-3 -85 2 -337 6 -387 6 -62 -1 -86 -26 -86 -22 0 -26
-15 -5 -23 7 -3 16 -19 20 -36 3 -17 9 -44 12 -61 4 -16 2 -30 -2 -30 -11 0
-16 -58 -6 -63 4 -3 28 -8 55 -11 l47 -7 0 375 -1 376 -49 0 -50 0 -1 -47z"/>
<path d="M2922 3582 c-36 -2 -52 -7 -49 -15 2 -7 9 -12 16 -12 6 0 37 -54 67
-120 31 -66 61 -124 66 -130 5 -5 -5 21 -21 58 -45 101 -37 95 19 -13 27 -52
49 -90 49 -85 0 6 -6 21 -14 35 -8 14 -14 30 -14 35 0 6 9 -7 20 -28 14 -26
17 -43 11 -54 -8 -14 -12 -12 -25 13 -19 34 -22 27 -5 -11 11 -24 14 -25 114
-25 57 0 105 4 108 8 4 7 -15 55 -105 252 l-38 85 -73 5 c-40 3 -97 4 -126 2z"/>
<path d="M7385 3563 c4 -10 14 -38 22 -63 8 -25 18 -54 23 -65 21 -49 30 -96
34 -180 l5 -90 33 -5 c18 -3 28 -8 22 -12 -6 -4 -10 -20 -9 -35 1 -16 0 -19
-2 -7 -5 28 -42 40 -40 13 1 -10 7 -21 14 -23 10 -4 13 -40 13 -142 0 -76 -2
-135 -5 -132 -3 2 -6 30 -6 61 -2 79 -19 72 -19 -8 0 -52 3 -65 16 -65 12 0
14 -9 12 -42 -2 -29 -8 -43 -17 -43 -8 0 -16 -11 -18 -25 -3 -24 -3 -24 11 -5
13 18 15 18 21 3 4 -9 2 -33 -4 -53 -7 -26 -7 -44 2 -63 10 -22 13 20 17 233
l6 260 2 -332 2 -333 23 -4 c12 -3 86 -8 165 -11 87 -3 161 -12 189 -21 34
-12 52 -13 75 -5 37 13 41 13 35 4 -3 -5 61 -9 142 -10 80 -2 201 -8 268 -14
93 -8 139 -8 195 2 40 6 82 12 93 12 11 0 97 -1 190 -2 l170 -3 2 104 c2 56 4
311 5 566 l3 462 -42 0 -43 0 0 -85 c0 -76 -2 -85 -18 -85 -13 0 -18 7 -18 23
1 20 -3 22 -46 19 -28 -2 -48 1 -48 6 0 6 9 31 20 57 11 26 20 69 20 96 l0 49
-125 0 -124 0 -3 -62 c-3 -61 -4 -62 -35 -69 -18 -3 -35 -4 -38 -1 -3 3 -5 34
-5 69 0 61 -1 63 -25 63 l-25 0 0 -126 0 -126 -32 7 c-43 9 -74 35 -56 47 7 4
10 8 6 8 -9 0 52 173 64 181 15 9 -367 19 -761 19 -342 0 -363 -1 -356 -17z
m622 -224 c1 -11 9 -26 17 -35 9 -8 16 -20 16 -25 0 -6 7 -18 16 -26 12 -12
13 -18 3 -24 -8 -5 -2 -9 17 -11 25 -3 22 -5 -18 -12 l-48 -8 0 -41 c0 -37 9
-131 59 -597 10 -92 14 -169 10 -175 -6 -5 -9 -5 -9 2 0 7 -17 12 -40 11 -23
0 -43 1 -44 3 -2 2 -5 33 -7 69 l-4 65 38 3 c20 2 37 7 37 12 0 18 -60 575
-66 608 -4 27 -9 32 -33 32 -45 0 -52 -17 -45 -120 5 -75 3 -91 -8 -88 -9 3
-14 26 -16 69 -2 41 -8 68 -17 75 -8 6 -16 27 -17 47 -4 52 -18 34 -18 -24 0
-42 -3 -49 -20 -49 -11 0 -20 3 -20 8 0 4 -22 5 -49 4 -43 -3 -48 -6 -43 -24
2 -11 0 -23 -5 -27 -17 -10 -22 -131 -6 -131 7 0 13 11 13 25 0 23 3 25 48 25
93 0 88 8 101 -163 7 -84 17 -188 23 -232 23 -182 23 -175 -1 -175 -11 0 -21
4 -21 8 0 5 -50 10 -111 11 -61 1 -115 4 -120 7 -5 3 -6 30 -2 61 4 41 3 54
-5 49 -7 -4 -12 -31 -12 -60 0 -44 -3 -55 -19 -59 -42 -11 -44 2 -37 184 3 96
6 198 6 227 -1 35 3 51 11 50 8 -2 12 13 11 45 0 64 -12 74 -14 11 -1 -39 -2
-34 -7 26 -3 41 -4 119 -2 173 l3 97 29 0 29 0 0 -97 c0 -121 10 -117 13 6 l2
92 30 -3 c27 -3 30 -6 26 -33 -1 -16 -6 -32 -11 -35 -10 -7 -8 -40 3 -40 5 0
7 7 4 14 -4 10 -1 13 8 10 10 -4 15 5 17 32 l3 38 60 -3 c33 -1 71 2 85 8 17
7 20 10 8 10 -10 1 -19 8 -19 16 -1 8 -2 21 -3 28 -1 6 5 11 12 10 7 -2 12 7
12 22 0 18 -5 25 -20 25 -11 0 -20 4 -20 10 0 10 92 17 150 12 27 -3 36 -9 37
-23z m270 -16 c-25 -28 -23 -144 6 -388 58 -479 60 -507 46 -516 -31 -20 -42
6 -52 129 -4 50 -2 62 10 62 8 0 11 5 8 10 -4 6 -10 8 -15 5 -9 -6 -14 23 -40
285 -11 107 -25 244 -31 304 -13 121 -11 126 50 126 32 0 33 -1 18 -17z m284
-62 c-12 -8 -13 -45 -6 -233 5 -122 9 -268 10 -323 1 -55 3 -152 6 -215 4
-113 3 -115 -19 -118 -12 -2 -22 1 -22 6 0 11 -65 9 -93 -3 -13 -5 -24 -1 -38
14 -11 11 -26 21 -34 21 -14 0 -16 10 -19 113 -1 17 4 21 22 20 25 -3 29 9 7
27 -12 10 -15 10 -15 -1 0 -11 -2 -11 -10 1 -13 20 -13 73 0 65 6 -3 10 -16
10 -27 0 -12 3 -18 6 -15 4 3 6 32 5 64 0 39 2 53 8 44 7 -10 9 0 8 32 -2 45
-4 47 -34 53 -18 3 -33 9 -34 13 0 3 -2 24 -5 47 -4 29 -1 44 10 53 14 11 16
11 16 -5 0 -17 1 -17 17 -1 19 19 20 72 3 257 -6 64 -6 98 2 107 7 9 41 13
112 13 63 0 96 -4 87 -9z m-491 -103 c-1 -13 12 -155 27 -315 l28 -293 31 0
c28 0 32 -3 38 -37 10 -61 7 -93 -9 -109 -8 -9 -15 -11 -15 -5 0 5 -17 11 -37
13 -37 3 -38 5 -41 43 -5 79 -62 661 -68 693 -4 29 -3 32 21 32 19 0 25 -5 25
-22z"/>
<path d="M9211 2945 l-4 -625 74 -1 c121 -1 310 -10 370 -18 31 -4 73 -5 93
-3 l36 4 0 84 c0 77 2 84 20 84 18 0 20 8 23 103 2 67 4 41 5 -75 2 -177 2
-178 -20 -178 -36 0 -9 -14 33 -17 21 -1 39 2 39 7 0 5 7 7 15 4 8 -4 15 -1
15 5 0 6 -6 11 -14 11 -11 0 -15 39 -21 198 -4 108 -8 262 -9 342 l-1 145 43
-3 c25 -2 42 1 42 7 0 6 -7 11 -16 11 -12 0 -15 6 -10 24 4 16 1 26 -10 30 -8
3 -12 10 -9 16 4 6 3 35 0 65 -7 53 -8 55 -38 55 l-30 0 6 68 c4 38 18 113 32
168 14 54 25 102 25 106 0 5 -154 8 -342 8 l-343 0 -4 -625z m531 250 c-1 -5
-19 -9 -40 -8 -20 1 -47 -1 -59 -3 l-23 -4 -1 -293 c0 -160 -4 -301 -9 -312
-10 -23 -13 -9 -10 39 1 18 -2 26 -9 22 -13 -9 -15 -116 -2 -116 5 0 11 3 14
8 2 4 2 0 0 -8 -9 -31 -7 -35 15 -38 12 -2 22 -7 22 -12 0 -5 7 -7 15 -4 11 5
15 -2 16 -27 2 -32 2 -32 6 -6 4 24 9 28 31 25 26 -3 27 -6 30 -67 3 -45 0
-66 -10 -72 -20 -13 -48 -11 -48 4 0 11 -18 14 -155 20 -25 2 -31 7 -36 32
l-7 30 -1 -33 c-1 -32 -2 -33 -37 -30 l-36 3 3 235 c2 129 4 321 4 427 l0 192
55 3 c112 7 275 3 272 -7z"/>
<path d="M9476 3078 c-3 -62 -6 -207 -7 -321 0 -115 -2 -207 -5 -205 -2 3 -5
17 -6 31 -1 15 -6 27 -10 27 -13 0 -3 -67 12 -85 11 -13 11 -18 1 -24 -10 -6
-8 -10 5 -15 9 -3 18 -5 19 -4 7 8 13 708 6 708 -4 0 -11 -51 -15 -112z"/>
<path d="M4063 3433 c-24 -2 -43 -8 -43 -14 0 -5 -6 -9 -12 -9 -10 0 -12 -23
-10 -90 1 -49 -1 -90 -5 -90 -15 0 -15 -112 -1 -121 10 -7 10 -9 1 -9 -7 0
-13 -10 -13 -22 0 -19 2 -20 10 -8 8 12 10 9 10 -13 0 -16 -4 -26 -10 -22 -6
4 -10 -10 -10 -35 0 -25 4 -39 10 -35 6 3 10 1 10 -4 0 -6 -4 -11 -10 -11 -5
0 -10 -7 -10 -15 0 -8 5 -15 11 -15 7 0 9 -10 7 -25 -3 -13 -1 -26 5 -28 26
-8 16 -107 -10 -107 -11 0 -13 -3 -8 -9 11 -11 172 -30 180 -22 3 2 5 163 4
358 l0 353 -32 -2 c-18 -1 -51 -3 -74 -5z"/>
<path d="M3754 3386 c-3 -8 -1 -40 5 -72 15 -78 14 -144 -1 -144 -9 0 -9 -3 0
-12 16 -16 15 -81 0 -96 -9 -9 -10 -15 -2 -20 6 -4 14 -49 18 -99 7 -82 6 -93
-8 -93 -15 0 -15 -2 0 -25 9 -14 23 -25 30 -25 12 0 14 38 14 214 0 133 -4
217 -10 221 -5 3 -10 42 -10 86 0 64 -3 79 -15 79 -9 0 -18 -6 -21 -14z"/>
<path d="M1455 3320 l0 -60 95 0 c108 0 140 -6 140 -26 0 -9 12 -14 35 -14 19
0 35 3 35 8 0 6 -288 153 -300 152 -3 0 -5 -27 -5 -60z"/>
<path d="M4550 3363 c-25 -1 -78 -8 -117 -14 l-73 -12 -1 -161 c0 -165 -4
-227 -19 -283 -7 -27 -6 -31 11 -30 17 1 19 11 20 122 0 130 10 185 22 126 4
-19 7 -84 7 -145 0 -67 4 -106 9 -97 6 10 12 4 21 -23 9 -28 9 -40 0 -51 -6
-8 -9 -18 -6 -24 4 -5 0 -16 -8 -24 -8 -8 -12 -17 -9 -20 3 -4 3 -14 -1 -23
-12 -31 -46 12 -47 60 l-2 41 -6 -40 -6 -40 -50 2 c-50 2 -46 -11 5 -19 14 -1
28 -7 32 -13 8 -11 411 -20 464 -10 34 6 34 6 34 60 0 43 -3 55 -16 55 -11 0
-14 6 -8 23 3 12 11 24 15 25 5 2 9 117 9 256 l0 253 -82 6 c-81 7 -106 7
-198 0z"/>
<path d="M3448 3173 c-27 -4 -28 -7 -28 -64 0 -46 3 -59 15 -59 8 0 15 -7 15
-16 0 -9 6 -22 14 -28 14 -11 66 -248 66 -299 0 -26 2 -27 36 -24 l36 4 -1
151 c-1 100 2 152 9 152 6 0 10 -52 10 -150 0 -113 3 -150 13 -150 9 0 11 32
10 131 -2 73 2 139 7 148 6 11 9 -34 10 -131 0 -125 2 -148 15 -148 16 0 19
15 17 98 -1 44 1 53 13 48 8 -3 15 -1 15 3 0 5 -5 11 -11 13 -7 2 -10 59 -10
166 l1 162 -112 -1 c-62 -1 -125 -4 -140 -6z"/>
<path d="M3188 3163 l-118 -4 -1 -49 c-2 -74 -2 -75 -24 -78 -19 -3 -20 -9
-17 -182 3 -159 1 -180 -13 -180 -14 0 -16 21 -13 179 l3 180 -29 5 c-54 11
-96 7 -96 -9 0 -8 -9 -15 -20 -15 -19 0 -20 -7 -20 -178 0 -98 2 -181 4 -183
2 -2 64 -2 138 1 l133 5 2 45 3 45 -13 -30 c-14 -30 -14 -30 -21 -7 -6 17 -2
30 12 45 18 19 21 36 21 125 1 56 -3 102 -8 102 -5 0 -11 -6 -14 -12 -8 -24
-19 1 -13 27 5 20 12 26 29 23 22 -3 22 -6 25 -168 3 -172 5 -190 22 -190 6 0
10 63 10 180 0 113 4 180 10 180 6 0 10 -67 11 -177 2 -197 14 -162 22 63 4
108 7 128 33 182 22 47 34 61 51 61 12 1 25 6 28 11 3 6 0 9 -7 8 -7 -1 -66
-4 -130 -5z"/>
<path d="M2719 3156 c-2 -3 -125 -6 -272 -7 l-267 -3 0 -269 0 -270 223 7
c122 3 257 9 300 12 l77 7 0 263 0 264 -28 0 c-16 0 -31 -2 -33 -4z"/>
<path d="M1766 3133 l-39 -4 7 -91 c3 -50 6 -164 6 -254 l0 -163 108 6 c59 3
108 6 108 7 1 0 5 80 8 176 6 175 12 258 19 295 2 11 -1 23 -7 27 -11 8 -139
8 -210 1z"/>
<path d="M45 3119 c-28 -6 -28 -7 -5 -9 23 -1 23 -2 5 -10 -16 -7 -16 -9 -4
-9 35 -2 40 -66 6 -75 -39 -9 -52 -47 -39 -108 8 -34 9 -72 4 -103 -5 -28 -8
-89 -8 -135 l1 -85 81 -3 c65 -2 85 1 98 13 9 9 16 12 16 6 0 -6 16 -11 35
-11 34 0 35 1 35 40 0 39 -1 39 -25 28 -14 -6 -25 -17 -25 -25 0 -7 -5 -13
-11 -13 -6 0 -8 9 -4 23 12 39 69 157 76 157 4 0 10 33 13 73 7 67 19 108 29
97 5 -6 -10 -310 -17 -357 -3 -18 -1 -33 5 -33 5 0 9 23 9 51 0 59 18 283 26
318 3 15 9 20 15 14 8 -8 -2 -255 -15 -350 -3 -18 -1 -33 3 -33 4 0 13 77 20
172 14 193 32 269 26 113 l-4 -100 11 103 c6 56 15 102 19 102 5 0 10 -37 11
-82 1 -46 3 -65 5 -43 7 84 15 125 24 125 5 0 10 -21 11 -47 l1 -48 6 45 c8
63 27 47 23 -20 -1 -30 -4 -100 -6 -155 l-5 -100 14 130 c21 191 24 196 20 35
l-3 -145 13 135 c19 180 25 199 19 60 -8 -215 -15 -269 -32 -262 -10 3 -13 1
-8 -6 10 -16 66 -15 66 1 0 6 7 84 15 172 8 88 15 169 16 180 1 17 2 16 9 -5
7 -22 8 -21 9 13 l1 37 -147 0 c-113 0 -155 -4 -177 -15 -19 -10 -41 -13 -59
-9 -41 9 -79 -11 -102 -54 -13 -24 -27 -37 -40 -37 -19 0 -20 7 -20 122 0 66
-2 123 -5 125 -3 2 -18 1 -35 -3z m154 -196 c-1 -34 -145 -328 -162 -331 -25
-5 -21 21 12 91 16 34 50 106 75 160 28 61 51 97 61 97 8 0 15 -8 14 -17z"/>
<path d="M704 2861 c3 -145 7 -266 10 -268 2 -3 13 0 24 6 28 15 57 14 71 -2
10 -13 65 -16 77 -5 3 4 1 23 -6 43 -7 20 -10 39 -7 41 3 3 11 -14 19 -37 13
-40 40 -70 52 -58 3 3 -19 83 -49 179 -30 96 -54 179 -52 183 1 5 26 -58 55
-140 58 -163 59 -162 12 10 -30 110 -33 144 -10 121 5 -5 26 -65 47 -132 20
-67 38 -120 40 -118 2 2 -11 63 -29 136 -25 100 -30 134 -20 137 6 3 12 11 12
19 0 9 4 13 10 9 5 -3 9 -29 9 -58 0 -45 21 -132 52 -217 6 -16 7 17 3 94 -4
96 -3 117 8 114 7 -3 16 -18 19 -34 l7 -29 1 33 c2 54 25 33 32 -29 5 -49 6
-47 7 29 2 62 5 83 15 80 8 -3 16 -51 24 -149 l11 -144 -5 149 c-4 122 -3 148
8 144 9 -3 16 -28 20 -69 l6 -64 1 68 c2 72 16 87 31 35 l9 -33 1 38 c1 26 5
37 16 37 11 0 15 -11 16 -37 0 -21 3 -31 6 -23 14 43 16 44 23 15 4 -16 8 -99
9 -182 0 -84 4 -153 9 -153 4 0 7 28 7 63 0 34 4 119 9 190 6 98 11 127 22
127 10 0 14 -14 15 -47 l2 -48 9 50 c5 28 12 80 15 117 4 59 3 67 -15 72 -11
4 -164 5 -341 4 l-322 -3 5 -264z"/>
<path d="M1459 3128 c-5 -13 -10 -474 -5 -492 5 -20 11 -24 33 -21 16 2 59 7
97 10 38 4 65 10 59 13 -5 4 -18 33 -28 64 -17 56 -17 57 4 91 26 42 27 67 3
67 -10 0 -26 6 -36 13 -14 10 -15 17 -7 40 6 16 12 62 13 103 3 71 4 74 28 75
23 1 23 2 -5 9 -28 7 -29 8 -5 10 l25 2 -25 8 c-23 7 -149 14 -151 8z"/>
<path d="M7430 3095 c-12 -23 -15 -81 -15 -329 0 -166 3 -313 8 -328 6 -25 12
-28 47 -28 22 0 40 4 40 10 0 5 -8 9 -17 8 -50 -4 -48 -13 -45 224 1 123 1
279 0 347 -3 117 -4 123 -18 96z"/>
<path d="M3421 2841 l1 -172 31 3 c29 3 31 6 34 48 2 44 -43 266 -58 284 -5 5
-8 -68 -8 -163z"/>
<path d="M3954 2651 c4 -6 17 -11 29 -11 18 0 19 -2 7 -10 -11 -7 -11 -10 -2
-10 7 0 11 -4 8 -9 -3 -5 1 -12 10 -15 8 -3 13 -10 10 -15 -4 -5 6 -18 20 -29
l27 -19 -65 -5 c-36 -3 -70 -8 -75 -11 -5 -4 -8 -20 -5 -36 l4 -30 124 -3 124
-3 0 85 0 86 -87 18 c-49 10 -99 20 -112 23 -17 4 -22 2 -17 -6z"/>
<path d="M4212 2152 c-1 -251 1 -462 5 -468 5 -6 64 -25 133 -42 69 -18 199
-52 290 -77 91 -24 171 -45 178 -45 9 0 12 107 12 500 0 293 -4 500 -9 500
-17 0 -426 60 -511 75 -47 8 -87 15 -90 15 -3 0 -6 -206 -8 -458z"/>
<path d="M2490 2560 c-85 -4 -189 -8 -231 -9 l-77 -1 -7 -200 c-4 -111 -5
-204 -1 -207 6 -6 459 13 554 23 l52 6 0 199 0 199 -67 -2 c-38 -1 -138 -5
-223 -8z"/>
<path d="M1454 2517 c-2 -7 -3 -96 -2 -197 3 -159 5 -184 18 -180 8 2 58 7
110 10 l95 5 3 181 2 181 -76 7 c-112 9 -144 8 -150 -7z"/>
<path d="M1734 2408 c2 -68 5 -151 5 -186 l1 -63 73 2 c39 0 91 4 115 6 l42 6
0 66 c1 36 6 93 13 126 7 33 12 80 12 105 -1 25 4 48 9 52 6 4 -53 8 -132 8
l-143 0 5 -122z"/>
<path d="M788 2512 c-87 -3 -88 -3 -88 -29 0 -14 7 -62 16 -107 14 -68 15 -93
5 -155 -10 -68 -10 -76 6 -85 19 -10 278 -10 490 1 85 4 126 10 134 19 8 9 9
34 5 72 -11 92 -8 150 8 184 9 17 16 48 16 70 l0 38 -252 -2 c-139 -2 -292 -4
-340 -6z"/>
<path d="M0 2500 c0 -5 4 -10 9 -10 7 0 18 -28 22 -57 1 -5 8 -17 15 -28 8
-11 14 -29 14 -42 0 -12 5 -25 11 -29 8 -5 10 -37 6 -105 -4 -84 -3 -99 11
-105 17 -7 521 -6 533 1 3 2 6 90 6 194 l1 191 -314 0 c-203 0 -314 -4 -314
-10z"/>
<path d="M3842 2318 c1 -106 5 -227 7 -268 l5 -75 6 60 c6 58 7 58 8 -27 2
-82 3 -86 23 -81 12 3 16 9 10 12 -7 4 -10 49 -10 116 1 61 0 133 -1 160 -1
28 -2 80 -3 118 -1 37 -5 67 -9 67 -5 0 -8 5 -8 10 0 6 9 10 20 10 21 0 24 9
14 59 -6 26 -11 31 -36 31 l-29 0 3 -192z"/>
<path d="M4905 2499 c3 -3 31 -10 62 -15 37 -5 49 -9 33 -12 l-24 -4 24 -14
c15 -8 19 -13 10 -14 -8 0 -4 -6 10 -13 25 -12 80 -107 80 -137 0 -9 5 -21 12
-28 7 -7 8 -12 3 -12 -6 0 -4 -4 4 -9 10 -6 -3 -11 -40 -15 -30 -3 -67 -8 -84
-10 -38 -6 285 3 345 9 25 2 36 2 25 -1 -30 -9 -45 -24 -45 -45 0 -19 39 -35
63 -26 10 4 12 -8 9 -54 -3 -41 -1 -59 7 -59 7 0 9 -5 5 -11 -8 -14 5 -179 15
-179 4 0 8 50 9 110 0 62 -4 110 -9 110 -10 0 -12 50 -3 74 3 9 10 16 16 16 5
0 7 -4 4 -9 -3 -5 19 -12 49 -16 l54 -6 -6 -32 c-8 -43 -13 -47 -13 -9 0 18
-4 32 -10 32 -5 0 -10 -21 -10 -46 0 -40 2 -45 18 -39 31 14 82 18 82 6 0 -6
-7 -11 -15 -11 -10 0 -15 -9 -14 -27 l1 -28 8 25 c7 21 8 22 10 5 4 -34 -2
-70 -11 -75 -5 -3 -9 -57 -10 -120 -3 -210 -26 -266 -32 -80 -2 72 -3 60 -5
-51 l-2 -146 25 -11 c23 -10 25 -17 25 -72 l0 -60 -34 3 c-19 1 -32 5 -29 10
2 4 -5 7 -15 7 -24 0 -39 17 -45 50 l-4 25 -2 -26 c-1 -21 -7 -28 -28 -32 -15
-3 -35 -2 -43 3 -24 12 -110 20 -110 9 0 -5 10 -9 23 -9 13 0 60 -11 104 -24
135 -40 264 -58 364 -50 l89 7 0 523 c0 429 -2 524 -13 524 -22 0 -816 80
-878 89 -32 4 -56 4 -54 0z"/>
<path d="M3783 2412 c-21 -3 -23 -9 -23 -72 0 -59 3 -68 19 -73 17 -4 19 -12
16 -48 -1 -24 -3 -46 -4 -48 -1 -2 -8 3 -18 10 -15 13 -16 6 -10 -93 5 -75 3
-108 -5 -110 -7 -3 -7 -10 2 -25 8 -12 20 -19 27 -16 10 4 13 -8 13 -50 0 -44
-3 -56 -17 -60 -10 -3 -3 -5 15 -6 43 -1 45 -2 64 -12 10 -6 19 -5 23 1 3 6
-4 10 -17 10 -13 0 -18 4 -13 8 6 4 8 20 4 37 l-7 30 -1 -33 c-1 -25 -5 -33
-17 -30 -14 3 -16 39 -20 293 -3 159 -6 290 -7 290 -1 0 -12 -1 -24 -3z"/>
<path d="M5950 2384 c8 -10 40 -44 70 -74 55 -54 136 -192 124 -211 -3 -5 1
-9 8 -9 9 -1 7 -5 -4 -14 -16 -12 -10 -14 43 -20 34 -3 105 -7 158 -7 59 -1
83 -4 61 -8 -30 -5 -35 -10 -38 -36 -3 -31 2 -33 71 -26 4 1 7 10 7 20 0 13 6
19 19 18 16 -1 18 -7 13 -42 -2 -22 -6 -41 -7 -42 -1 -2 -23 4 -49 13 -26 9
-50 14 -53 11 -3 -3 -6 -52 -8 -109 -3 -133 -4 -138 -12 -138 -5 0 -7 48 -6
107 0 60 -2 135 -6 168 l-7 60 -7 -80 c-4 -44 -8 -144 -9 -222 0 -79 -5 -143
-10 -143 -4 0 -8 16 -8 37 0 80 -9 20 -14 -95 -6 -117 -5 -122 14 -122 18 0
20 -7 20 -65 l0 -65 -62 0 c-66 0 -73 -9 -11 -16 21 -2 49 -5 63 -6 16 -2 25
2 26 12 3 37 5 41 16 34 8 -5 9 -2 2 12 -11 23 -13 258 -4 329 10 69 13 34 10
-135 -1 -128 0 -143 13 -126 10 13 16 15 21 8 4 -7 18 -12 32 -12 24 0 24 1
26 98 2 160 8 207 22 191 2 -2 6 -97 9 -211 l6 -208 -40 0 c-22 0 -49 5 -60
10 -10 6 -19 7 -19 2 0 -5 24 -16 53 -25 67 -20 187 -31 187 -17 0 5 -10 10
-22 10 -13 0 -34 1 -48 4 -14 2 -28 5 -32 5 -5 1 -8 30 -8 66 0 72 1 73 73 56
l37 -9 0 243 0 243 -22 6 c-13 3 -35 6 -50 6 -15 0 -29 4 -32 9 -8 12 29 21
87 21 46 0 47 1 47 30 0 31 13 40 26 18 4 -6 3 -13 -4 -16 -7 -2 -9 -26 -7
-65 2 -34 1 -51 -2 -37 -2 14 -9 29 -14 35 -5 5 -9 -86 -9 -232 l0 -242 28 -3
c26 -3 27 -6 30 -65 l3 -63 -31 0 c-21 0 -30 -5 -30 -16 0 -11 6 -15 20 -11
11 3 18 2 15 -3 -5 -7 114 -28 290 -51 74 -9 109 -8 194 4 56 9 105 18 107 20
3 3 6 252 7 553 l2 549 -290 22 c-415 32 -921 73 -985 80 -53 6 -54 6 -40 -13z
m890 -409 c-5 -14 -7 -32 -3 -41 5 -15 1 -16 -29 -11 -19 3 -39 2 -44 -1 -12
-9 -14 -42 -3 -42 6 0 9 -87 9 -207 -1 -300 -1 -303 10 -303 6 0 10 16 10 36
0 21 4 33 10 29 6 -4 10 23 10 75 0 62 -3 79 -12 74 -8 -5 -8 -1 1 10 13 15
13 19 0 28 -11 7 -11 11 -1 15 6 2 12 20 12 39 0 20 -5 34 -12 34 -9 0 -9 3
-2 8 14 9 18 86 4 77 -6 -4 -10 4 -10 19 0 13 6 26 13 29 9 3 9 7 -2 20 -12
15 -11 17 10 17 22 0 24 -5 26 -52 2 -33 -2 -55 -10 -60 -9 -6 -9 -8 1 -8 15
0 16 -42 0 -58 -9 -9 -9 -12 1 -12 7 0 9 -5 4 -12 -11 -19 -12 -38 -2 -38 14
0 11 -70 -3 -71 -10 0 -10 -2 0 -6 8 -3 12 -34 12 -104 l0 -99 39 0 c22 0 46
-3 55 -6 13 -5 16 3 18 42 l2 49 3 -46 c4 -43 7 -47 34 -53 29 -5 29 -6 29
-72 l0 -66 -27 6 c-25 4 -134 19 -251 32 l-43 5 3 67 c3 60 5 67 23 65 20 -2
20 3 17 277 -3 271 -3 278 -22 273 -11 -3 -20 0 -20 6 0 6 19 11 45 11 41 0
45 2 45 25 0 21 5 25 30 25 27 0 29 -2 20 -25z"/>
<path d="M3977 2356 c-4 -9 -7 -103 -7 -210 -1 -154 -4 -196 -15 -200 -8 -3
-15 0 -18 7 -2 7 -9 2 -16 -11 -13 -25 -9 -52 9 -52 5 0 10 6 10 14 0 7 7 19
15 26 13 10 15 9 15 -12 0 -13 5 -29 11 -35 13 -13 8 -98 -6 -98 -5 0 -11 12
-13 28 -4 33 -22 36 -22 3 0 -18 -6 -26 -22 -29 -16 -2 -19 -5 -8 -9 8 -3 31
-11 50 -18 19 -8 74 -15 123 -18 l87 -3 0 315 0 316 -45 0 -45 0 0 -85 c0 -71
-3 -85 -16 -85 -14 0 -15 12 -11 85 4 87 1 93 -35 74 -15 -8 -22 -8 -28 1 -5
8 -9 7 -13 -4z"/>
<path d="M7380 2273 c0 -20 19 -77 36 -108 6 -11 14 -38 18 -60 6 -37 13 -60
32 -110 4 -11 6 -23 6 -27 -1 -5 4 -8 11 -8 8 0 11 -14 9 -45 -3 -30 -9 -45
-18 -45 -8 0 -14 -5 -14 -12 0 -25 -14 5 -21 45 l-6 42 -2 -39 c-1 -34 -3 -38
-23 -32 -23 5 -23 5 -20 -100 4 -119 22 -135 22 -18 0 41 4 74 8 74 5 0 9 -43
8 -96 -1 -87 -3 -98 -24 -114 -21 -17 -22 -24 -21 -175 0 -87 2 -155 4 -153 3
2 5 25 6 51 1 26 6 47 11 47 5 0 7 -4 3 -9 -3 -5 -1 -12 5 -16 5 -3 10 -24 10
-46 0 -21 5 -39 10 -39 10 0 13 24 12 83 0 15 4 27 9 27 5 0 9 -9 9 -21 0 -11
5 -17 10 -14 6 3 10 1 10 -4 0 -6 -4 -11 -9 -11 -11 0 -8 -53 4 -62 6 -4 20
-8 32 -8 12 0 24 -8 26 -17 4 -14 5 -12 6 5 1 24 11 26 59 13 l32 -10 0 67 c1
37 1 135 0 218 l-1 152 25 4 c14 3 28 3 31 0 3 -3 5 -104 5 -224 0 -120 3
-218 8 -219 4 0 18 -2 31 -5 l23 -4 -3 327 -4 328 58 -3 57 -3 0 29 c0 30 1
30 63 34 54 3 196 -7 158 -11 -7 0 -11 -7 -8 -15 4 -9 -3 -16 -19 -20 l-24 -6
0 -194 c0 -146 -3 -196 -12 -199 -10 -4 -10 -6 0 -6 9 -1 12 -37 12 -146 l0
-145 24 0 c22 0 23 -4 25 -65 1 -59 0 -65 -18 -65 -12 0 -21 8 -24 23 -3 15
-5 12 -6 -13 -2 -19 -5 -29 -8 -22 -2 6 -8 10 -11 8 -4 -2 -59 2 -122 10 -63
8 -153 19 -200 24 -47 5 -100 14 -119 20 -24 6 -38 6 -47 -1 -7 -6 -21 -8 -31
-5 -39 11 -113 15 -113 6 0 -6 10 -10 23 -11 12 0 29 -2 37 -3 37 -7 140 -19
195 -22 33 -2 80 -6 105 -9 50 -7 136 -14 192 -18 20 -1 40 -5 44 -9 4 -5 49
-8 101 -8 92 0 93 0 89 23 -3 12 -8 217 -11 455 -7 415 -6 432 12 432 10 0 35
3 56 6 24 5 37 3 37 -5 0 -6 -7 -11 -16 -11 -12 0 -14 -3 -6 -13 14 -16 10
-40 -8 -63 -14 -16 -12 -17 40 -11 51 6 53 5 30 -8 -14 -8 -48 -14 -75 -15
l-50 0 3 -322 c2 -178 6 -325 7 -327 2 -1 15 -4 29 -5 14 0 26 -4 26 -8 0 -5
16 -8 35 -8 l35 0 0 -70 0 -70 -35 0 c-19 0 -35 5 -35 10 0 6 -13 10 -30 10
-16 0 -30 -4 -30 -10 0 -5 14 -10 30 -10 18 0 33 -6 36 -15 5 -12 28 -15 128
-14 66 0 166 -4 221 -10 90 -10 457 -32 461 -28 8 8 15 1127 7 1127 -5 0 -47
-13 -93 -30 -65 -23 -76 -29 -47 -27 20 2 37 -1 37 -5 0 -4 -5 -8 -11 -8 -8 0
-8 -4 -2 -12 14 -18 17 -158 4 -158 -7 0 -11 -30 -11 -77 0 -42 2 -74 4 -72 3
4 15 103 16 137 0 19 70 16 70 -4 0 -9 -6 -14 -12 -12 -7 3 -18 -1 -25 -8 -15
-15 -18 -108 -3 -99 6 3 10 23 10 43 0 29 3 34 13 24 9 -10 13 -104 14 -387
l2 -375 -39 0 c-33 0 -40 -3 -40 -20 0 -18 -6 -19 -64 -18 -47 2 -62 6 -59 15
4 9 -7 13 -37 13 -26 0 -39 -4 -35 -11 5 -7 -5 -8 -32 -3 -47 8 -55 14 -19 14
28 0 33 24 5 26 -8 0 -20 2 -26 2 -10 2 -13 38 -13 144 0 78 -2 139 -6 136 -3
-3 -5 -75 -5 -159 0 -84 -3 -149 -7 -143 -10 16 -82 13 -82 -3 0 -18 -17 -16
-28 3 -5 9 -29 17 -65 21 l-57 6 0 64 c0 55 2 64 18 62 9 -1 37 -1 62 0 l45 1
-3 339 -3 340 86 3 c78 3 83 2 65 -12 -12 -9 -18 -19 -14 -22 7 -8 36 2 45 14
3 4 33 11 67 14 52 6 62 10 62 26 0 17 -5 18 -45 12 l-45 -6 0 53 c0 70 -9 99
-29 99 -9 0 -45 -9 -79 -20 -98 -31 -93 -36 -90 93 l3 112 -24 0 c-23 0 -23 0
-22 -113 2 -81 -2 -118 -11 -130 -10 -12 -10 -14 0 -8 6 4 12 2 12 -3 0 -6 -9
-11 -20 -11 -16 0 -18 4 -10 24 8 21 5 24 -20 29 -16 4 -53 4 -82 1 -29 -3
-48 -2 -43 3 6 4 11 19 13 33 1 14 15 46 31 72 16 25 32 57 36 70 4 12 13 26
19 30 7 5 3 8 -9 8 -37 0 -898 49 -977 55 -71 6 -78 5 -78 -12z"/>
<path d="M4928 2190 c-4 -14 -8 -71 -8 -128 0 -79 -4 -109 -17 -128 -14 -22
-14 -27 -2 -34 16 -11 13 -71 -5 -83 -8 -6 -8 -10 2 -14 6 -2 12 -9 12 -14 0
-6 -4 -7 -10 -4 -5 3 -10 2 -10 -3 0 -6 7 -13 16 -16 12 -4 13 -10 6 -19 -12
-14 -13 -106 0 -113 4 -3 9 -29 9 -57 l1 -52 9 60 c11 71 7 641 -3 605z"/>
<path d="M9202 1578 c-3 -590 -2 -618 15 -618 52 -1 216 -21 226 -27 7 -5 59
-8 117 -9 141 0 349 -19 382 -34 31 -15 58 -7 58 15 0 9 -10 16 -27 17 -16 0
-32 2 -38 3 -5 2 -26 3 -46 4 l-36 1 -7 398 c-4 218 -8 415 -9 437 l-2 40 45
2 c42 1 44 1 25 -14 -19 -15 -19 -15 10 -9 75 17 81 18 65 7 -13 -9 -13 -11 3
-11 13 0 17 8 17 36 0 33 -2 36 -22 30 -78 -22 -74 -24 -83 46 -7 55 -9 59
-15 33 l-8 -30 -1 33 c-1 19 -5 31 -11 27 -6 -4 -10 5 -10 21 0 46 23 159 34
167 8 5 7 10 -3 16 -12 8 -93 13 -521 30 l-155 6 -3 -617z m309 238 c-8 -9
-10 -35 -7 -73 3 -32 8 -149 11 -260 l6 -203 -49 0 -49 0 -9 268 c-5 147 -8
270 -6 275 2 4 28 7 59 7 47 0 54 -2 44 -14z m127 -409 c1 -62 7 -185 13 -275
8 -106 9 -166 2 -173 -6 -6 -25 -6 -49 -1 l-39 8 -3 72 c-3 67 -1 72 18 72 18
0 20 6 19 73 -1 39 -3 64 -6 55 -2 -10 -8 -18 -12 -18 -13 0 -21 54 -21 131 0
52 3 69 14 69 10 0 13 13 11 48 -1 35 2 49 14 53 32 13 37 -1 39 -114z"/>
<path d="M3580 2174 c-80 -8 -155 -19 -166 -25 -12 -6 -31 -8 -43 -4 -20 6
-229 -7 -436 -27 -55 -5 -122 -9 -150 -9 -27 0 -146 -6 -264 -14 -118 -8 -242
-15 -277 -15 -35 0 -66 -4 -69 -10 -3 -5 -38 -7 -84 -3 -99 7 -635 -16 -639
-28 -5 -13 -62 -11 -62 1 0 13 -693 2 -698 -11 -5 -13 -56 -11 -69 2 -8 8 -99
9 -317 4 l-306 -8 0 -63 0 -64 123 -1 c318 -3 492 3 508 17 21 19 43 18 60 -2
11 -14 26 -15 99 -9 47 4 96 7 110 5 14 -1 34 -2 45 -2 11 1 74 3 140 5 168 6
305 18 311 28 7 12 52 11 59 -1 6 -10 142 -6 220 6 17 3 111 7 210 10 99 3
187 7 195 10 8 3 121 8 250 10 223 4 433 18 453 31 6 3 77 7 159 9 156 3 370
27 425 46 24 9 35 9 45 0 11 -8 45 -9 134 -1 201 18 184 11 184 74 0 30 -1 54
-2 54 -2 -1 -68 -8 -148 -15z"/>
<path d="M3438 2003 c-16 -4 -18 -18 -18 -113 0 -103 1 -108 22 -114 22 -5 23
-6 3 -21 -11 -9 -14 -14 -7 -10 10 5 11 0 6 -22 -4 -15 -11 -31 -16 -34 -17
-11 29 -39 72 -43 25 -2 46 -5 48 -5 1 -1 -2 -7 -9 -13 -7 -8 -37 -13 -73 -13
-55 0 -61 -2 -58 -20 1 -11 4 -38 6 -60 2 -22 6 -47 9 -55 4 -8 8 -37 9 -65 3
-41 7 -52 27 -61 l24 -12 -29 -4 c-34 -4 -42 -25 -43 -115 -1 -66 3 -72 53
-82 41 -9 47 -38 9 -43 -22 -2 -27 -8 -25 -23 2 -11 3 -30 3 -43 -1 -15 7 -26
22 -32 16 -6 18 -9 5 -9 -12 -1 -15 -6 -11 -17 3 -9 1 -19 -6 -23 -6 -4 -17
-42 -23 -84 -7 -42 -17 -77 -23 -77 -5 0 -5 -4 2 -8 9 -5 8 -24 -3 -77 -8 -39
-12 -84 -9 -102 3 -17 1 -34 -5 -38 -5 -3 -10 -13 -10 -22 0 -13 2 -14 17 -2
15 13 16 12 8 -6 -4 -11 -10 -35 -13 -53 -2 -19 -11 -36 -18 -39 -8 -3 -11 -9
-8 -14 3 -5 1 -9 -5 -9 -5 0 -9 -14 -9 -30 1 -34 -6 -45 -21 -35 -16 9 -13 41
4 55 14 11 13 14 -1 25 -11 8 -14 19 -10 33 4 12 11 20 16 17 8 -5 19 62 11
70 -2 3 -17 5 -33 5 -15 0 -28 5 -28 10 0 6 -4 10 -10 10 -5 0 -10 -7 -10 -16
0 -8 -5 -12 -11 -9 -7 5 -4 14 7 26 14 15 14 19 3 19 -8 0 -22 9 -32 20 -16
19 -16 20 8 20 34 0 32 20 -2 21 -25 0 -26 1 -8 9 11 5 16 9 11 9 -6 1 -2 7 8
14 16 12 16 14 2 26 -9 8 -26 11 -41 7 -14 -4 -25 -2 -25 4 0 5 11 10 25 10
18 0 25 5 25 19 0 11 -5 21 -12 23 -7 3 -8 9 -3 19 15 23 14 37 -2 43 -13 6
-13 9 1 31 9 13 16 34 16 46 0 12 7 31 17 41 15 17 15 19 0 36 -10 10 -17 25
-17 34 0 8 -10 19 -23 25 -17 8 -22 18 -21 39 1 16 3 31 4 34 1 3 2 9 1 14 -1
4 6 14 16 22 17 13 16 15 -7 18 -22 2 -9 20 17 24 34 4 31 1 39 42 l7 33 -37
-28 c-29 -22 -39 -26 -46 -16 -5 9 -13 10 -21 5 -25 -16 -82 -33 -91 -28 -5 3
-4 12 2 19 28 33 46 142 27 161 -4 4 -7 18 -7 30 0 25 -27 39 -53 28 -16 -6
-19 -56 -4 -70 3 -4 0 -21 -6 -38 -17 -41 -15 -108 4 -115 22 -9 24 -77 2 -90
-10 -6 -12 -11 -5 -11 12 0 8 -40 -7 -65 -16 -27 -10 -44 17 -47 15 -2 26 -8
25 -15 -2 -7 2 -13 9 -13 6 0 8 -3 4 -7 -4 -5 -13 -8 -19 -8 -18 0 -28 -56
-23 -122 5 -58 4 -62 -17 -65 -19 -3 -22 -10 -25 -55 -2 -32 1 -53 7 -53 6 0
11 11 11 24 0 14 5 28 11 32 8 4 7 9 -2 15 -11 6 -10 9 4 15 22 8 27 3 31 -30
3 -32 20 -35 24 -4 6 53 13 68 31 68 10 0 20 -2 23 -5 7 -8 -54 -187 -75 -218
-18 -28 -47 -37 -47 -14 0 6 -3 23 -6 37 -4 20 -3 22 5 10 7 -9 11 -10 11 -3
0 6 -4 15 -10 18 -5 3 -10 15 -10 26 0 10 -4 19 -9 19 -12 0 -23 -55 -22 -109
1 -40 0 -43 -21 -37 -13 3 -31 6 -40 6 -19 0 -14 28 6 42 6 5 1 8 -11 8 -23 0
-24 4 -8 83 2 9 -1 15 -6 11 -5 -3 -9 -15 -9 -28 0 -12 -4 -26 -9 -31 -5 -6
-12 -20 -15 -32 -6 -18 -4 -20 14 -16 15 4 19 2 14 -10 -3 -9 -11 -14 -17 -11
-17 5 -30 -6 -44 -38 -8 -17 -9 -30 -3 -33 15 -10 1 -114 -22 -167 -20 -45
-18 -81 2 -48 5 8 12 11 16 7 11 -10 -2 -19 -32 -23 -23 -2 -25 0 -20 22 4 14
2 24 -4 24 -5 0 -10 -4 -10 -10 0 -9 -24 -7 -88 6 l-24 5 25 19 c30 24 37 25
37 5 0 -8 5 -15 10 -15 6 0 10 9 10 20 0 15 -7 20 -25 20 -20 0 -25 5 -25 24
0 16 -7 27 -20 31 -35 11 -22 20 31 22 28 0 53 3 55 6 3 3 7 19 9 37 2 18 10
38 16 46 9 11 6 14 -17 15 -24 1 -25 2 -6 6 15 3 22 11 22 28 0 13 -4 26 -10
30 -12 7 -1 42 38 123 11 24 13 35 5 40 -7 4 -13 21 -16 37 -2 19 -12 34 -26
40 -18 8 -21 16 -17 38 4 19 1 27 -8 27 -8 0 -16 7 -20 15 -4 11 2 15 20 15
20 0 24 4 19 19 -4 13 2 25 21 38 25 19 26 22 16 53 -7 18 -12 46 -12 61 0 19
-5 29 -15 29 -8 0 -15 -4 -15 -10 0 -13 -97 -110 -110 -110 -15 0 -12 16 5 30
8 7 15 20 15 29 0 9 9 34 19 56 11 22 34 72 53 110 l33 70 0 329 0 330 -163
-2 c-90 -1 -168 -5 -173 -8 -5 -3 -46 -7 -92 -9 -45 -2 -101 -6 -124 -10 l-43
-8 0 -196 c0 -146 4 -203 14 -222 11 -22 11 -31 0 -58 -18 -44 -24 -221 -7
-221 15 0 27 14 55 60 12 19 23 30 25 23 3 -7 -7 -28 -21 -46 -14 -19 -23 -36
-21 -39 3 -3 -3 -32 -14 -64 -21 -58 -21 -102 -2 -114 7 -3 5 -16 -4 -33 -12
-23 -12 -27 0 -27 8 0 17 5 20 10 5 8 11 7 21 -1 8 -6 25 -9 38 -7 14 3 31 1
38 -3 10 -7 10 -9 1 -9 -7 0 -13 -7 -13 -16 0 -8 -5 -12 -10 -9 -14 9 -90 -4
-90 -15 0 -4 7 -11 16 -14 8 -3 12 -2 9 4 -11 18 25 10 55 -12 l29 -21 -21
-19 c-12 -10 -29 -18 -38 -18 -11 0 -20 -10 -23 -27 -4 -22 -3 -25 6 -13 7 8
17 15 22 16 26 1 65 17 65 27 0 8 3 8 11 0 9 -9 4 -24 -18 -60 -16 -26 -44
-79 -63 -117 -25 -48 -43 -72 -64 -81 -26 -11 -27 -12 -7 -18 18 -4 21 -10 15
-34 -4 -15 -10 -30 -14 -33 -13 -8 -40 -80 -31 -80 5 0 11 9 14 20 7 27 27 25
28 -2 1 -13 2 -36 3 -52 2 -21 -4 -30 -21 -37 -13 -5 -23 -11 -23 -14 0 -4 4
-4 9 0 15 8 25 -15 12 -28 -18 -18 -13 -47 9 -47 11 0 20 5 20 11 0 5 5 7 11
3 8 -5 8 -8 0 -14 -7 -3 -10 -13 -7 -21 15 -51 17 -53 25 -40 6 9 10 5 14 -14
3 -21 0 -29 -14 -32 -28 -8 -51 -60 -38 -86 9 -16 8 -22 -4 -29 -9 -5 -14 -15
-11 -22 3 -8 -2 -16 -13 -19 -10 -3 39 -5 108 -6 l125 -1 20 57 c12 31 27 59
35 61 9 2 10 1 3 -5 -6 -4 -13 -24 -17 -43 -3 -19 -8 -43 -12 -52 -7 -17 3
-18 112 -18 l120 0 28 92 c33 110 45 138 58 138 9 0 2 -75 -13 -140 -4 -19
-11 -47 -14 -63 l-6 -27 250 0 c241 0 250 1 250 19 0 11 5 23 10 26 14 9 12
36 -4 49 -11 9 -12 20 0 71 7 33 13 74 13 92 1 39 33 65 70 56 28 -6 61 -35
61 -53 0 -5 5 -10 10 -10 6 0 10 16 10 35 0 26 -3 33 -15 29 -18 -7 -21 26 -3
44 17 17 28 15 28 -4 0 -8 5 -12 10 -9 17 10 24 -25 10 -50 -7 -13 -9 -32 -5
-42 7 -17 8 -17 15 2 4 11 6 -18 6 -65 l-2 -85 -34 -3 c-19 -2 -61 -4 -93 -5
l-57 -2 0 -32 c0 -18 5 -33 10 -33 6 0 10 -7 10 -15 0 -10 11 -15 35 -15 28 0
35 4 35 19 0 28 -19 36 -28 12 -8 -24 -26 -16 -36 17 -7 20 -5 22 17 16 14 -3
34 -1 43 4 14 8 21 5 31 -15 7 -14 13 -32 13 -39 0 -9 11 -14 29 -14 33 0 34
4 46 115 8 70 12 80 29 66 10 -9 14 -99 6 -136 -8 -37 0 -45 48 -45 35 0 52 5
64 19 11 13 24 18 37 14 16 -4 21 -1 21 16 0 24 -25 29 -34 6 -13 -35 -25 -11
-23 50 2 67 19 85 25 27 3 -34 42 -68 42 -37 0 8 -7 15 -15 15 -20 0 -19 7 9
55 12 22 29 40 37 40 16 0 28 50 21 94 -2 18 -10 31 -18 31 -8 0 -14 5 -14 11
0 5 -4 8 -9 4 -5 -3 -11 5 -13 17 -4 28 -44 33 -42 6 3 -30 -10 -20 -29 22 -9
22 -17 58 -17 81 0 24 -4 38 -10 34 -5 -3 -10 -24 -10 -46 0 -21 -4 -39 -10
-39 -5 0 -10 9 -10 20 0 11 -4 20 -10 20 -5 0 -10 -9 -10 -20 0 -11 -4 -20 -9
-20 -13 0 5 62 21 71 7 4 9 11 5 15 -4 4 11 16 34 26 34 16 39 21 28 35 -12
13 -14 13 -25 -2 -7 -9 -21 -15 -31 -12 -16 4 -16 5 0 6 18 1 25 21 7 21 -20
0 -9 16 21 29 19 8 45 11 69 7 25 -4 41 -2 49 7 14 17 4 27 -25 27 -36 0 -38
19 -5 38 35 19 42 52 11 52 -11 0 -20 7 -20 15 0 10 10 15 28 15 43 0 58 14
45 43 -13 29 1 109 23 128 8 6 14 7 14 2 0 -6 11 -23 25 -39 14 -16 25 -32 25
-36 0 -5 6 -8 14 -8 8 0 19 -13 24 -29 15 -44 89 -107 172 -147 41 -19 87 -42
103 -50 15 -9 36 -13 46 -9 18 5 51 -17 51 -35 0 -4 17 -15 38 -25 20 -9 64
-30 97 -45 33 -16 87 -36 120 -46 33 -9 85 -29 115 -44 30 -16 71 -31 90 -35
19 -4 39 -14 45 -22 6 -8 30 -19 54 -24 34 -8 46 -7 55 5 14 18 56 4 56 -19 0
-19 24 -29 161 -66 59 -16 114 -31 123 -35 11 -4 16 -1 16 11 0 14 2 15 15 2
8 -8 31 -15 50 -15 20 0 44 -7 53 -15 9 -8 35 -20 57 -27 22 -6 54 -16 70 -22
111 -37 159 -50 272 -74 100 -20 131 -23 148 -14 25 13 72 -1 81 -25 4 -10 20
-15 46 -15 27 0 45 -6 54 -17 11 -17 55 -18 618 -21 333 -1 606 1 606 6 0 5
-37 14 -82 21 -222 33 -1219 224 -1240 238 -5 2 -8 -6 -8 -17 0 -16 -4 -20
-16 -16 -9 3 -27 9 -40 12 -13 4 -24 14 -24 23 0 14 -23 22 -112 40 -109 22
-552 133 -747 187 -68 19 -96 23 -101 14 -10 -16 -60 -1 -60 19 0 12 -40 29
-163 69 -89 29 -227 79 -307 111 -87 35 -148 54 -151 48 -10 -14 -39 -1 -39
18 0 8 -29 29 -68 49 -38 19 -109 62 -159 95 -50 34 -96 61 -102 61 -6 0 -11
5 -11 11 0 6 -13 28 -29 48 -15 20 -36 51 -45 69 -12 24 -23 32 -44 32 -20 0
-23 3 -13 9 25 16 -11 39 -68 45 -39 3 -54 1 -58 -10 -7 -19 -23 -8 -23 17 0
16 5 19 19 14 11 -3 22 -1 26 5 3 5 11 10 16 10 6 0 7 -5 4 -10 -3 -5 -3 -10
2 -10 9 0 62 73 82 113 10 21 11 34 3 51 -6 13 -6 29 -2 36 5 8 4 22 -2 33 -7
14 -7 22 2 27 9 6 6 11 -10 20 l-22 12 23 21 c21 20 21 21 3 28 -10 4 -43 8
-71 8 l-53 1 3 40 c1 24 7 40 15 40 6 0 12 8 12 19 0 13 -10 20 -31 25 -25 5
-30 9 -24 23 4 10 10 32 14 48 10 44 47 47 56 6 5 -26 11 -31 36 -31 19 0 29
5 29 15 0 8 4 15 10 15 15 0 24 71 11 91 -6 11 -11 27 -12 36 -1 13 -4 10 -10
-7 -6 -18 -7 -13 -3 21 5 50 -12 77 -42 65 -8 -3 -25 1 -37 9 -12 8 -34 15
-49 15 -15 0 -30 5 -33 10 -6 10 -45 12 -77 3z m-862 -1608 c-4 -20 -13 -38
-21 -41 -8 -3 -17 -20 -21 -37 -3 -18 -10 -37 -15 -43 -5 -6 -17 -35 -27 -63
-10 -29 -21 -52 -25 -52 -4 1 -32 1 -62 1 -30 0 -55 5 -55 10 0 6 7 10 16 10
8 0 20 13 25 29 6 15 21 33 34 39 17 8 22 16 18 32 -4 15 1 26 16 36 11 8 21
24 21 35 0 14 9 21 30 26 28 5 43 23 20 23 -24 0 -8 29 18 32 36 4 35 5 28
-37z"/>
<path d="M3056 1893 c-4 -43 -9 -95 -12 -115 -2 -21 -6 -53 -8 -70 -2 -18 -6
-41 -10 -50 -5 -11 -1 -20 16 -29 24 -13 84 -17 95 -6 3 4 13 7 20 7 15 0 43
23 43 36 0 4 8 13 18 20 16 13 16 13 -3 14 -12 0 -16 3 -9 8 7 4 9 21 7 40 -4
24 -10 32 -27 33 -19 1 -18 2 4 8 26 7 28 12 15 48 -4 13 -13 19 -21 16 -32
-12 -61 6 -74 48 -11 33 -11 42 -1 48 9 6 6 10 -11 14 -12 4 -26 7 -29 7 -3 0
-9 -35 -13 -77z"/>
<path d="M1177 1878 c-11 -10 -25 -18 -31 -18 -6 0 -5 4 2 9 10 6 4 10 -18 15
-21 4 -39 1 -53 -9 -17 -12 -56 -15 -183 -15 -200 0 -194 4 -194 -131 0 -101
7 -123 33 -113 20 7 24 -21 5 -33 -49 -31 -46 -82 5 -84 l32 -1 -35 -8 c-19
-4 -66 -11 -105 -14 l-70 -7 32 21 c36 22 35 14 33 190 -1 69 -5 98 -15 106
-12 9 -12 13 3 27 37 37 -22 49 -184 38 -60 -5 -161 -4 -224 1 -137 10 -189
-1 -201 -45 -5 -18 -3 -27 8 -32 14 -5 14 -7 -1 -23 -9 -10 -16 -29 -16 -41 0
-20 4 -22 32 -16 l33 6 -22 -20 c-27 -23 -30 -48 -5 -54 14 -3 12 -6 -11 -17
-23 -11 -27 -19 -27 -57 0 -23 2 -43 4 -43 2 0 20 7 40 15 36 15 56 13 56 -6
0 -5 -10 -9 -22 -9 -19 0 -20 -2 -8 -10 8 -5 25 -10 38 -10 30 0 28 -12 -7
-38 -16 -12 -31 -32 -33 -44 -2 -14 -11 -24 -23 -25 -11 -2 -14 0 -7 3 14 7
16 24 3 24 -29 0 -39 -32 -40 -130 0 -58 4 -100 9 -100 6 0 10 -7 10 -15 0 -8
5 -15 10 -15 6 0 2 -10 -9 -21 -19 -21 -27 -89 -11 -89 4 0 8 -11 8 -25 0 -14
-4 -25 -9 -25 -18 0 -8 -19 12 -25 17 -6 19 -9 8 -17 -10 -7 -9 -8 6 -3 11 4
33 11 49 16 16 5 39 18 52 30 25 24 79 23 79 -1 1 -32 17 -42 56 -37 22 3 41
1 44 -3 6 -9 -19 -20 -46 -20 -10 0 -19 -4 -19 -10 0 -15 14 -12 76 15 64 28
92 31 100 11 4 -10 18 -13 47 -11 23 1 42 3 42 5 0 1 14 3 31 5 26 2 74 34 74
49 0 3 -14 7 -31 11 -38 9 -33 24 16 50 38 20 38 20 11 23 l-26 3 19 25 c17
22 19 35 14 97 -4 52 -11 78 -25 92 -16 17 -20 18 -28 5 -8 -13 -10 -12 -10 3
0 9 7 17 17 17 12 0 14 3 6 11 -6 6 -28 9 -49 7 l-39 -4 28 -12 c31 -13 39
-47 8 -37 -13 4 -20 -1 -25 -17 -6 -23 -7 -23 -21 -4 -8 11 -15 16 -15 11 0
-5 -5 -4 -12 3 -7 7 -20 12 -30 12 -10 0 -19 3 -19 8 -7 39 -4 58 10 68 30 23
2 27 -51 7 -41 -14 -52 -23 -50 -37 2 -11 -1 -16 -10 -14 -7 3 -13 17 -13 32
0 15 -6 30 -14 35 -33 21 3 31 102 30 69 -1 92 -4 72 -9 -21 -5 -24 -8 -9 -9
35 -2 74 22 68 42 -3 9 -1 17 5 17 5 0 18 3 28 6 14 5 15 4 4 -4 -27 -20 -4
-40 54 -47 56 -7 346 0 415 9 29 5 31 4 10 -3 -20 -7 -21 -9 -5 -9 25 0 75 16
55 17 -13 1 -13 2 0 11 11 7 12 12 4 20 -19 19 -85 30 -187 31 -54 0 -97 2
-95 4 5 5 90 15 146 16 29 1 55 6 58 11 3 4 14 8 25 8 10 0 19 5 19 10 0 6 8
10 18 10 10 0 27 7 39 15 19 13 21 13 16 -3 -4 -15 1 -17 35 -14 30 3 39 8 37
20 -1 10 0 11 2 3 4 -10 21 -12 69 -9 35 2 67 7 71 11 11 11 12 66 2 73 -5 3
1 14 13 24 18 14 20 20 10 33 -10 12 -10 16 3 21 20 7 20 63 0 68 -13 3 -13 7
-1 30 13 24 12 28 -8 46 -30 29 -150 35 -179 10z"/>
<path d="M1752 1892 c-8 -6 -14 -47 -17 -128 -3 -65 -9 -143 -14 -172 -8 -51
-7 -53 19 -67 25 -13 29 -12 43 3 31 36 39 61 24 76 -9 10 -13 34 -11 78 4 67
4 134 1 183 -2 31 -21 42 -45 27z"/>
<path d="M1579 1886 c-2 -2 -28 -6 -57 -9 -30 -3 -56 -8 -59 -10 -15 -16 -4
-157 14 -178 12 -14 11 -21 -4 -47 -15 -27 -16 -33 -3 -57 8 -14 13 -42 13
-62 -1 -27 3 -37 18 -40 10 -3 19 -9 19 -13 0 -4 10 -10 21 -13 15 -4 20 -11
15 -22 -3 -9 -6 -25 -6 -36 0 -12 -10 -21 -32 -27 -39 -10 -45 -37 -8 -37 16
0 25 -6 25 -15 0 -8 -7 -15 -15 -15 -9 0 -16 -11 -18 -25 -2 -14 -7 -34 -12
-45 -14 -31 -30 -127 -26 -162 2 -18 8 -39 15 -47 9 -11 8 -17 -4 -29 -8 -9
-11 -17 -4 -19 5 -2 1 -13 -11 -25 -24 -26 -25 -33 -6 -33 21 0 28 -40 8 -47
-13 -6 -13 -8 4 -14 41 -16 71 -10 95 21 14 17 40 35 61 40 33 10 44 28 26 46
-4 3 17 35 45 71 88 110 87 107 74 226 -2 20 0 37 5 37 5 0 4 9 -2 21 -8 14
-8 24 -1 33 12 14 5 26 -16 26 -8 0 -13 -12 -13 -35 0 -30 -3 -35 -24 -35 -21
0 -25 6 -28 33 -3 32 -3 32 -58 32 -44 0 -54 3 -52 15 2 8 10 21 19 28 9 6 18
19 19 28 3 16 27 47 72 91 25 25 30 63 7 63 -8 0 -15 -4 -15 -10 0 -5 -4 -10
-10 -10 -5 0 -10 7 -10 15 0 8 5 15 11 15 6 0 9 6 6 13 -2 6 2 34 10 60 11 38
12 63 3 123 -5 42 -10 77 -10 80 0 5 -95 5 -101 0z"/>
<path d="M7778 1860 c-2 -14 -2 -159 0 -322 2 -289 3 -298 22 -298 18 0 26 21
21 53 0 4 6 7 14 7 11 0 13 -8 9 -30 -4 -19 -2 -30 5 -30 8 0 11 89 11 319 l0
319 -40 4 c-36 3 -39 1 -42 -22z"/>
<path d="M5180 1849 c0 -10 4 -20 8 -23 5 -3 9 -25 9 -50 1 -39 -2 -45 -23
-50 -19 -5 -25 -15 -30 -46 -4 -22 -10 -40 -13 -40 -4 0 -5 -16 -3 -35 2 -20
10 -35 17 -35 16 0 27 -43 19 -75 -5 -21 -3 -25 15 -25 12 0 21 -6 21 -14 0
-13 20 -26 41 -26 17 0 9 18 -11 23 -17 4 -20 14 -20 59 0 30 3 58 7 61 5 6 4
99 -3 182 -1 17 -3 48 -3 71 -1 29 -5 41 -16 41 -8 0 -15 -8 -15 -18z"/>
<path d="M9919 1476 c-1 -154 -5 -265 -9 -246 -6 29 -8 23 -9 -33 -1 -43 3
-66 9 -62 6 4 10 -8 10 -29 0 -29 4 -36 19 -36 11 0 22 -6 24 -12 4 -10 6 -10
6 0 1 6 8 12 16 12 13 0 15 45 15 344 l0 343 -40 0 -40 0 -1 -281z"/>
<path d="M3895 1700 c8 -13 -19 -40 -40 -40 -16 0 -17 -25 -14 -303 l4 -303
30 -2 30 -2 0 307 0 308 23 3 c26 4 28 -3 7 -24 -24 -24 -20 -125 5 -152 l21
-22 -21 0 c-20 0 -20 -4 -16 -127 7 -165 6 -303 0 -325 -4 -14 1 -18 20 -18
24 0 26 3 28 53 1 28 3 72 4 97 1 25 3 126 3 225 1 99 4 195 8 214 6 33 6 33
51 27 52 -7 73 -21 65 -43 -5 -13 -3 -13 15 -4 28 15 32 14 32 -8 0 -11 5 -23
11 -26 7 -5 9 4 7 25 -3 31 -8 35 -88 66 -47 19 -92 38 -101 43 -34 20 -90 40
-84 31z"/>
<path d="M8570 1438 c4 -35 5 -107 2 -160 l-4 -98 41 0 41 0 0 74 c0 41 5 78
10 81 6 3 10 18 9 33 l-1 27 -7 -25 c-7 -21 -8 -17 -12 23 -2 26 -1 47 3 47 5
0 8 -5 8 -12 0 -6 3 -8 7 -4 5 4 -1 14 -11 22 -17 12 -18 14 -3 14 9 0 17 5
17 10 0 6 -8 10 -17 10 -15 0 -16 2 -3 10 11 7 1 10 -35 10 l-51 0 6 -62z"/>
<path d="M4141 1436 c-8 -9 -9 -22 -4 -33 11 -24 5 -455 -7 -448 -5 3 -11 1
-15 -5 -3 -5 1 -10 9 -10 9 0 16 -4 16 -10 0 -5 7 -10 15 -10 13 0 15 36 15
265 0 146 -4 265 -9 265 -5 0 -14 -6 -20 -14z"/>
<path d="M4908 1383 c6 -2 12 -11 12 -19 0 -8 -6 -14 -12 -15 -7 0 -4 -4 7 -8
19 -8 19 -8 -3 -20 -12 -7 -27 -9 -32 -6 -6 3 -10 -5 -10 -18 0 -14 7 -27 15
-30 11 -5 13 -18 10 -54 -2 -26 -7 -141 -10 -255 -6 -187 -5 -208 9 -208 9 0
18 0 21 0 3 0 5 3 6 8 0 4 5 13 11 20 7 8 7 12 0 12 -6 0 -9 7 -6 15 4 8 1 15
-5 15 -6 0 -10 3 -10 8 1 4 1 9 0 12 -6 16 -8 69 -2 78 9 14 51 25 51 14 0 -6
-5 -12 -12 -14 -7 -3 -6 -7 5 -11 13 -5 17 -1 17 18 0 15 -6 25 -15 25 -12 0
-14 30 -15 195 l0 195 25 -2 25 -2 0 -233 c-1 -134 -5 -235 -11 -238 -5 -4 -9
1 -9 10 0 13 -4 14 -20 5 -11 -6 -20 -15 -20 -21 0 -6 5 -7 10 -4 6 3 19 4 30
0 15 -5 20 -17 22 -63 3 -55 4 -57 33 -62 28 -5 30 -8 33 -58 l3 -52 -36 0
c-21 0 -49 9 -65 20 -26 19 -30 19 -44 4 -9 -9 -23 -13 -31 -10 -8 3 -15 1
-15 -3 0 -14 22 -19 58 -13 19 3 46 -2 65 -11 39 -18 257 -70 264 -63 6 6 4 7
-62 24 -22 6 -51 14 -65 18 -36 10 -50 29 -50 69 0 20 -4 45 -10 55 -9 17 -7
18 22 9 18 -5 34 -9 35 -9 2 0 3 32 3 70 0 43 -4 70 -11 70 -5 0 -8 4 -5 9 4
5 -4 7 -16 3 -14 -3 -19 -2 -14 6 4 7 1 12 -8 12 -14 0 -16 24 -14 198 2 141
3 163 5 76 3 -116 5 -122 26 -128 12 -3 25 -6 30 -6 4 0 7 28 7 63 0 38 4 57
9 48 7 -11 9 -11 14 0 3 8 6 -56 5 -141 -1 -99 -5 -158 -12 -162 -8 -5 -7 -8
2 -8 8 0 12 -19 12 -59 0 -66 7 -73 66 -64 27 4 35 3 30 -5 -4 -7 -2 -12 3
-12 6 0 9 10 7 23 -3 12 -5 25 -5 30 -1 4 -12 7 -26 7 -17 0 -25 -6 -25 -17 0
-9 -3 -14 -6 -10 -10 10 6 46 24 50 16 4 16 5 0 6 -10 0 -18 5 -18 11 0 5 13
7 29 4 27 -6 29 -4 24 16 -3 13 -14 25 -25 27 -10 3 -18 9 -18 14 0 14 11 11
32 -8 16 -14 18 -14 18 0 0 8 -6 18 -12 20 -9 4 -9 8 -3 14 10 8 11 11 14 59
0 15 5 23 12 19 6 -4 9 -29 8 -56 -3 -53 5 -73 16 -40 3 12 11 19 16 16 5 -4
9 5 9 19 0 16 -6 26 -14 26 -19 0 -9 37 12 45 16 6 35 -13 26 -26 -2 -4 0 -10
5 -14 6 -3 7 -13 4 -22 -5 -11 -3 -14 6 -9 9 6 12 1 9 -15 -2 -18 1 -23 15
-21 24 4 21 -13 -7 -35 -18 -15 -23 -26 -19 -46 3 -15 2 -39 -3 -54 l-8 -28
-6 35 c-6 30 -8 27 -9 -25 -2 -33 -4 -82 -5 -108 -1 -26 2 -51 6 -54 5 -3 9 1
7 8 -1 8 -1 35 0 62 1 46 2 47 28 41 25 -7 26 -6 20 29 -3 20 -1 39 4 42 14 9
11 -79 -3 -93 -9 -9 -9 -12 0 -12 6 0 12 -23 14 -57 3 -56 4 -58 33 -61 17 -2
34 -8 39 -13 13 -12 59 -12 51 1 -3 6 -14 10 -23 10 -9 0 -34 5 -54 11 l-38
10 0 59 0 60 31 0 32 0 -7 236 c-7 263 -10 284 -37 284 -10 0 -19 5 -19 10 0
6 9 10 20 10 11 0 20 7 20 15 0 12 13 15 60 15 57 0 60 -1 50 -20 -6 -12 -19
-19 -33 -17 -16 1 -23 -4 -25 -20 -3 -22 0 -25 38 -27 8 -1 15 -12 17 -29 1
-21 -3 -27 -18 -27 -10 0 -28 -9 -39 -20 -11 -11 -15 -20 -10 -20 6 0 9 -3 8
-7 -4 -16 15 -78 26 -85 8 -6 7 -11 -4 -18 -13 -9 -12 -13 5 -26 14 -11 16
-18 8 -21 -20 -7 -15 -29 10 -41 l22 -11 -22 -6 c-12 -4 -24 -12 -26 -18 -5
-13 10 -240 18 -273 9 -40 64 -69 176 -92 131 -27 129 -27 129 2 0 19 -4 23
-20 19 -11 -3 -34 0 -52 6 -22 8 -34 8 -36 1 -4 -12 -72 -14 -72 -2 0 5 15 7
33 5 l32 -3 -32 10 c-32 10 -33 12 -33 70 0 60 0 60 30 60 28 0 30 2 30 40 0
40 7 48 25 31 6 -5 17 -11 25 -14 8 -2 4 -3 -10 -1 -22 2 -25 -1 -25 -27 0
-33 15 -37 41 -11 17 16 17 16 12 -5 -5 -19 -2 -23 17 -23 21 0 24 -6 28 -42
2 -24 4 119 5 317 l2 360 -197 33 c-109 19 -321 58 -471 88 -261 52 -303 59
-274 47z m332 -133 c0 -5 -8 -10 -17 -10 -13 0 -14 -3 -5 -12 7 -7 12 -30 12
-52 0 -23 8 -50 16 -61 15 -19 15 -16 9 34 l-7 53 45 -3 c36 -3 47 -1 50 12 4
13 14 16 47 13 42 -4 69 -14 37 -14 -9 0 -17 -8 -17 -17 0 -15 -1 -15 -13 2
-8 10 -19 15 -24 12 -15 -9 -23 -47 -11 -47 6 0 5 -6 -2 -15 -9 -10 -9 -15 -1
-15 6 0 11 -7 11 -16 0 -8 -4 -13 -8 -10 -10 6 -8 -36 3 -77 5 -18 3 -33 -6
-44 -10 -12 -10 -15 -1 -9 7 4 12 2 12 -4 0 -7 -7 -9 -16 -6 -9 3 -23 6 -32 6
-16 1 -15 2 1 14 9 7 17 18 17 24 0 6 6 13 13 15 11 5 -8 8 -67 11 -10 1 -20
9 -22 19 -7 47 -14 23 -14 -46 0 -77 -6 -92 -34 -81 -14 5 -16 29 -16 170 0
157 1 164 20 164 11 0 20 -4 20 -10z m450 -70 c13 -8 12 -10 -2 -10 -20 0 -21
-16 -18 -187 2 -103 11 -149 29 -145 9 2 9 -3 0 -19 -10 -20 -9 -21 20 -17 18
3 34 1 37 -4 3 -4 -1 -8 -9 -8 -19 0 -63 -40 -59 -54 6 -20 -9 -116 -18 -111
-5 3 -8 26 -8 53 0 26 -1 52 -2 57 -4 19 2 50 11 62 6 6 6 12 1 15 -5 1 -12
57 -16 123 -3 66 -9 137 -12 158 -6 34 -9 37 -40 37 -19 0 -34 5 -34 10 0 6
18 10 40 10 33 0 40 3 40 20 0 22 16 26 40 10z m75 -10 c3 -5 -1 -10 -9 -10
-9 0 -16 -4 -16 -10 0 -5 4 -10 9 -10 4 0 13 -24 18 -52 l10 -53 2 68 c1 68 8
78 41 57 12 -8 10 -10 -9 -10 -18 0 -21 -3 -13 -12 5 -7 13 -34 17 -60 4 -27
11 -48 16 -48 10 0 11 -183 2 -207 -5 -12 -7 -12 -15 -1 -7 10 -11 10 -14 1
-8 -18 -43 16 -37 36 2 9 -3 5 -11 -9 -8 -14 -16 -23 -17 -20 -1 3 -5 83 -8
178 -5 157 -5 172 11 172 9 0 20 -4 23 -10z"/>
<path d="M907 1334 c-3 -3 -43 -7 -90 -8 -88 -3 -120 -12 -96 -27 11 -6 11
-11 1 -21 -14 -14 -17 -42 -3 -34 5 4 7 -7 5 -23 -3 -20 0 -30 11 -34 8 -4 15
-14 15 -23 0 -12 7 -15 29 -12 21 3 28 0 27 -11 -1 -11 6 -15 22 -13 26 4 29
-6 5 -23 -14 -11 -15 -16 -5 -36 7 -13 10 -16 8 -6 -6 19 20 25 26 5 3 -8 12
-5 26 8 25 24 21 49 -9 57 -10 3 -19 11 -19 17 0 9 22 11 85 8 92 -5 108 -11
80 -32 -25 -18 -5 -28 44 -20 27 4 38 10 34 20 -3 8 9 19 31 28 36 15 50 46
21 46 -8 0 -15 -7 -15 -15 0 -8 -5 -15 -11 -15 -6 0 -9 9 -6 20 3 11 -1 27 -9
34 -8 8 -14 20 -14 27 0 10 -3 10 -12 1 -7 -7 -19 -12 -27 -12 -8 0 -11 3 -8
7 14 14 -18 33 -74 45 -32 7 -59 16 -59 20 0 4 5 8 10 8 6 0 10 5 10 10 0 11
-23 14 -33 4z"/>
<path d="M1299 1123 c-1 -4 -2 -12 -4 -18 -1 -5 -3 -16 -3 -23 -1 -7 -8 -10
-14 -7 -7 4 -4 -1 6 -9 12 -9 14 -16 7 -16 -8 0 -10 -7 -6 -19 7 -23 -36 -56
-53 -39 -14 14 -69 -5 -88 -29 -13 -17 -13 -17 -14 0 0 9 -9 25 -20 34 -19 16
-19 17 6 42 l26 25 -28 8 c-16 4 -42 3 -59 -1 -28 -9 -29 -10 -7 -16 12 -4 22
-10 22 -14 -1 -14 -39 -51 -54 -51 -22 0 -9 -29 18 -40 18 -8 17 -9 -11 -9
-31 -1 -49 -21 -19 -21 8 0 18 -5 22 -12 5 -8 2 -9 -10 -5 -13 5 -17 2 -14
-11 4 -21 79 -25 86 -3 3 10 -2 11 -18 6 -16 -5 -21 -4 -18 6 3 9 17 13 39 11
24 -2 43 4 62 19 32 24 39 22 31 -8 -6 -21 -48 -57 -69 -58 -5 -1 -9 -6 -8
-13 2 -7 -3 -12 -11 -12 -13 0 -29 -34 -19 -43 5 -5 167 2 200 9 12 2 25 13
28 24 4 11 26 29 51 40 25 12 42 25 38 31 -11 19 -12 79 0 79 6 0 5 4 -3 9 -9
6 -11 18 -7 34 3 14 2 28 -3 31 -5 3 -7 15 -4 27 5 18 2 19 -21 13 -23 -5 -27
-4 -24 12 2 11 -4 20 -14 22 -10 2 -19 0 -19 -5z"/>
<path d="M0 776 l0 -68 28 6 c15 3 50 8 77 12 75 10 157 43 153 61 -4 23 -68
42 -169 49 l-89 7 0 -67z"/>
<path d="M9191 456 c-2 -366 -1 -376 19 -396 11 -11 20 -15 20 -10 0 6 7 10
15 10 10 0 15 -10 15 -30 0 -17 5 -30 10 -30 6 0 10 11 10 25 0 26 15 34 23
13 4 -10 6 -10 6 0 2 22 21 2 21 -21 1 -17 2 -19 9 -7 6 12 21 489 21 703 0
33 3 37 26 37 l26 0 -8 -312 c-11 -394 -9 -457 10 -437 2 2 9 170 15 373 7
204 13 372 16 374 2 2 14 1 26 -3 l22 -7 -7 -247 c-3 -135 -9 -302 -12 -371
-4 -69 -4 -122 0 -119 3 3 13 159 21 345 17 388 19 408 45 394 19 -10 20 -54
5 -456 -7 -183 -6 -214 7 -233 10 -14 18 -18 23 -12 9 15 21 14 39 -4 9 -9 17
-11 21 -5 10 17 25 11 25 -10 0 -11 7 -20 15 -20 8 0 15 3 15 8 0 4 25 162 55
352 30 189 55 346 55 347 0 2 9 3 20 3 12 0 24 -9 29 -22 l8 -22 5 22 c6 23
15 27 34 14 8 -5 5 -44 -11 -142 -34 -206 -85 -502 -91 -533 -5 -25 -3 -27 26
-27 17 0 33 6 35 13 3 6 25 122 50 257 68 365 64 350 81 343 11 -4 14 9 14 74
l0 79 -157 12 c-87 7 -243 19 -348 27 -104 8 -215 18 -246 21 l-56 6 -2 -376z"/>
<path d="M1654 734 c-28 -27 -28 -27 -7 -35 18 -6 21 -14 16 -41 -3 -18 -1
-30 3 -26 9 10 36 -11 28 -23 -3 -5 1 -9 8 -9 8 0 6 -5 -5 -11 -10 -6 -31 -8
-47 -4 -21 5 -31 2 -40 -12 -9 -15 -10 -11 -4 17 4 19 12 38 18 42 12 8 18 48
7 48 -14 -1 -52 -40 -47 -49 4 -5 2 -12 -4 -16 -6 -4 -8 -11 -5 -16 4 -5 2 -9
-4 -9 -12 0 -41 -28 -41 -41 0 -12 187 -12 195 1 4 6 -6 10 -22 11 -25 0 -24
2 12 13 32 10 36 14 20 18 -16 5 -17 6 -2 7 9 0 17 7 17 15 0 17 21 26 63 26
l32 1 -27 14 c-26 15 -58 11 -58 -6 0 -4 -7 -6 -15 -3 -20 8 -19 21 3 28 9 3
0 3 -22 0 -33 -5 -38 -3 -32 11 4 12 0 18 -14 22 -11 3 -18 9 -15 13 3 5 13 6
23 3 10 -2 31 1 47 8 28 10 28 12 10 19 -36 15 -62 10 -91 -16z"/>
<path d="M3858 689 c-21 -192 -20 -294 3 -329 8 -13 10 -13 19 0 7 12 10 8 10
-15 1 -29 1 -29 15 -11 15 20 15 20 30 0 19 -26 20 -58 0 -50 -8 3 -15 1 -15
-4 0 -5 -13 -7 -30 -4 -46 10 -57 -7 -55 -78 1 -52 5 -64 20 -67 10 -1 22 4
27 13 11 19 30 21 27 4 -1 -7 0 -29 1 -48 2 -32 3 -33 9 -10 10 36 42 33 52
-4 5 -16 6 -33 3 -38 -3 -4 6 -12 20 -18 14 -5 26 -14 26 -20 0 -5 9 -10 21
-10 17 0 20 4 15 24 -6 23 14 53 27 39 4 -3 13 -1 21 6 11 9 15 8 20 -5 9 -24
0 -32 -33 -28 -25 3 -28 0 -24 -16 6 -24 23 -27 23 -4 0 9 6 14 13 11 19 -7
40 8 42 30 1 10 5 32 9 49 8 34 -9 89 -24 79 -5 -3 -10 -1 -10 4 0 6 5 11 10
11 14 0 12 27 -2 33 -9 3 -7 9 6 19 24 19 36 116 15 129 -8 5 -9 9 -3 9 16 0
27 66 16 86 -7 13 -10 9 -16 -17 -5 -27 -9 -31 -16 -19 -5 8 -10 23 -10 33 0
9 -4 17 -10 17 -5 0 -10 -18 -10 -40 0 -22 -4 -40 -9 -40 -11 0 -20 38 -23
102 -2 38 -7 48 -20 48 -10 0 -18 -6 -19 -12 -4 -102 -9 -140 -21 -157 -14
-20 -16 -17 -22 41 -18 151 -19 183 -3 169 10 -8 17 -9 22 -1 3 5 -4 14 -17
19 -13 5 -30 16 -37 25 -18 22 -31 20 -31 -3 0 -11 -4 -23 -10 -26 -6 -4 -10
6 -10 23 0 31 -39 78 -42 51z"/>
<path d="M9011 586 c-42 -15 -53 -42 -49 -121 1 -33 -1 -65 -5 -72 -4 -6 -3
-13 3 -15 5 -2 10 -81 11 -190 l3 -188 43 0 43 0 0 300 c0 165 -3 300 -7 299
-5 0 -23 -6 -42 -13z"/>
<path d="M184 577 c-3 -10 -1 -24 6 -33 10 -11 10 -18 2 -26 -7 -7 -12 -20
-12 -30 0 -10 -4 -18 -10 -18 -5 0 -10 -7 -10 -16 0 -14 -7 -16 -40 -11 -30 4
-40 2 -40 -9 0 -8 -9 -14 -20 -14 -11 0 -23 -7 -26 -15 -4 -8 -12 -15 -20 -15
-12 0 -14 -35 -14 -195 l0 -195 159 0 159 0 41 42 c23 23 47 50 52 60 8 15 6
18 -15 18 -14 0 -28 5 -32 11 -3 6 -14 9 -24 6 -11 -3 -21 2 -25 12 -8 19 -4
27 10 23 15 -3 55 35 55 53 0 10 -9 12 -34 8 -23 -3 -42 0 -57 11 -13 9 -36
16 -52 16 -25 0 -27 3 -21 23 6 21 6 21 -13 4 -11 -9 -33 -17 -49 -17 -18 0
-34 -7 -42 -20 -15 -25 -44 -27 -35 -2 3 9 30 41 59 70 34 33 51 58 48 67 -4
8 -1 15 5 15 6 0 11 5 11 10 0 6 -7 10 -15 10 -12 0 -13 3 -5 13 61 73 66 92
34 133 -20 24 -24 26 -30 11z"/>
<path d="M9992 542 c-1 -18 -6 -31 -11 -28 -4 3 -6 -6 -3 -19 2 -14 0 -25 -5
-25 -5 0 -10 -15 -11 -33 -1 -18 -19 -122 -42 -231 -22 -109 -40 -200 -40
-202 0 -2 7 -4 15 -4 9 0 18 12 22 30 7 39 21 39 15 0 -4 -29 -3 -30 32 -30
l36 0 0 166 c0 116 -3 163 -11 158 -12 -7 -9 38 4 47 4 3 6 50 4 105 -1 54 -4
84 -5 66z"/>
<path d="M1047 518 c-21 -11 -22 -28 -2 -28 8 0 15 -4 15 -10 0 -5 -11 -10
-25 -10 -15 0 -23 -5 -20 -12 7 -19 -10 -41 -32 -43 -32 -2 -43 -15 -43 -50 0
-33 1 -34 43 -37 41 -3 42 -4 41 -35 -1 -18 2 -33 7 -33 5 0 9 5 9 11 0 5 5 7
10 4 6 -3 10 0 10 9 0 8 14 26 32 41 27 23 30 30 20 46 -16 25 -15 32 3 26 8
-4 17 -1 21 4 14 23 23 -8 13 -45 -12 -42 -8 -52 16 -42 13 4 14 14 9 43 -4
21 -7 46 -6 56 0 9 -4 17 -10 17 -6 0 -8 9 -5 20 3 11 1 20 -4 20 -5 0 -9 -4
-9 -10 0 -5 -5 -10 -11 -10 -7 0 -17 -7 -24 -17 -8 -11 -18 -14 -31 -9 -18 8
-18 9 2 18 12 6 25 23 28 39 3 17 12 29 21 29 8 0 15 3 15 8 0 11 -74 11 -93
0z"/>
<path d="M1946 472 c-13 -21 -42 -59 -64 -85 -22 -26 -43 -56 -47 -67 -3 -11
-13 -20 -21 -20 -9 0 -12 5 -8 12 4 6 10 29 14 50 8 39 -4 50 -27 27 -9 -9
-11 -7 -9 5 1 10 9 22 17 27 10 6 0 9 -30 9 -36 0 -42 2 -32 14 19 23 -4 28
-24 6 -10 -11 -26 -20 -35 -20 -22 0 -32 -24 -18 -38 15 -15 -3 -35 -48 -57
-19 -9 -40 -27 -46 -41 -6 -13 -15 -24 -20 -24 -15 0 -8 -39 10 -49 12 -8 14
-13 5 -19 -22 -14 2 -35 32 -28 21 5 24 10 16 20 -9 11 -3 14 28 19 22 3 53
14 68 25 33 23 83 37 83 23 0 -5 -4 -12 -9 -15 -11 -7 -51 -88 -51 -103 0 -7
-11 -20 -24 -30 -18 -15 -66 -94 -66 -110 0 -2 34 -3 75 -3 78 0 125 17 125
46 0 8 9 14 20 14 11 0 20 5 20 10 0 6 -8 10 -17 10 -27 0 -2 18 31 22 21 2
34 14 54 47 20 34 22 43 10 39 -14 -6 -14 -4 -1 23 9 19 20 28 29 25 18 -7 19
30 2 38 -7 3 -5 4 5 3 11 -1 25 10 35 28 9 16 25 38 35 49 21 24 22 46 2 46
-8 0 -15 -4 -15 -10 0 -5 -4 -10 -9 -10 -6 0 -3 12 4 27 13 25 13 28 -5 35
-11 4 -20 12 -20 18 0 12 -32 50 -42 50 -4 0 -19 -17 -32 -38z"/>
<path d="M6872 385 c-60 -12 -91 -25 -61 -25 12 0 12 -2 0 -9 -10 -7 5 -15 53
-30 38 -12 76 -21 86 -21 11 0 22 -4 25 -10 3 -5 20 -9 38 -9 18 1 80 -2 140
-6 104 -8 107 -8 107 13 0 14 -7 22 -22 24 -13 2 -22 9 -20 16 1 7 -9 12 -25
13 -29 0 -61 4 -128 14 -22 3 -54 14 -70 25 -34 22 -36 22 -123 5z"/>
<path d="M5005 133 c1 -21 -1 -43 -6 -49 -4 -5 -6 -27 -2 -47 l6 -37 63 0 c60
0 64 2 64 23 0 12 -9 28 -20 35 -14 9 -20 23 -20 50 0 46 -14 62 -56 62 -31 0
-32 -1 -29 -37z"/>
</g>
</svg>
